<svg width="1297" height="126" viewBox="0 0 1297 126" fill="none" xmlns="http://www.w3.org/2000/svg">
<path d="M0.792969 27H5.92578V16.2422C5.92578 13.7637 7.34961 12.0586 9.77539 12.0586C12.1133 12.0586 13.3086 13.5352 13.3086 15.9609V27H18.4414V14.8711C18.4414 10.5117 16.0508 7.80469 11.8672 7.80469C9.00195 7.80469 6.94531 9.14062 5.94336 11.5137H5.83789V1.63477H0.792969V27ZM23.0996 3.81445V8.15625H20.4453V12.0234H23.0996V21.9199C23.0996 25.5938 24.8223 27.0703 29.252 27.0703C30.2891 27.0703 31.168 26.9824 31.6953 26.8594V23.0801C31.3789 23.1328 30.9043 23.168 30.4473 23.168C28.9355 23.168 28.2324 22.4824 28.2324 21.041V12.0234H31.7129V8.15625H28.2324V3.81445H23.0996ZM35.8965 3.81445V8.15625H33.2422V12.0234H35.8965V21.9199C35.8965 25.5938 37.6191 27.0703 42.0488 27.0703C43.0859 27.0703 43.9648 26.9824 44.4922 26.8594V23.0801C44.1758 23.1328 43.7012 23.168 43.2441 23.168C41.7324 23.168 41.0293 22.4824 41.0293 21.041V12.0234H44.5098V8.15625H41.0293V3.81445H35.8965ZM58.3262 7.85742C55.6016 7.85742 53.5098 9.22852 52.4902 11.4434H52.3848V8.15625H47.3223V33.1523H52.4551V23.8359H52.5605C53.5625 25.9629 55.6719 27.2988 58.4141 27.2988C63.125 27.2988 66.043 23.6426 66.043 17.5781C66.043 11.4961 63.1074 7.85742 58.3262 7.85742ZM56.6035 23.168C54.0898 23.168 52.4375 20.9883 52.4375 17.5781C52.4375 14.2031 54.0898 11.9707 56.6035 11.9707C59.1699 11.9707 60.7871 14.168 60.7871 17.5781C60.7871 21.0059 59.1699 23.168 56.6035 23.168ZM68.3809 13.6934C68.3809 16.4707 70.209 18.334 73.7773 19.1426L77.2578 19.916C78.9453 20.3203 79.5781 20.8477 79.5781 21.7969C79.5781 23.0273 78.4004 23.8008 76.4492 23.8008C74.4102 23.8008 73.1621 22.8867 72.916 21.3047H67.9062C68.1875 24.9785 71.2812 27.4043 76.3086 27.4043C81.2832 27.4043 84.6934 24.9609 84.6934 21.252C84.6934 18.4395 83.1641 16.9453 79.3848 16.1016L75.7812 15.3281C74.1289 14.9414 73.3203 14.3086 73.3203 13.377C73.3203 12.1641 74.4805 11.3555 76.2559 11.3555C78.1543 11.3555 79.3672 12.2871 79.4727 13.7988H84.2012C84.1309 10.1426 81.0547 7.75195 76.3262 7.75195C71.4922 7.75195 68.3809 10.1074 68.3809 13.6934ZM90.5996 27.2109C92.1641 27.2109 93.4297 25.9453 93.4297 24.3809C93.4297 22.7988 92.1641 21.5508 90.5996 21.5508C89.0176 21.5508 87.7695 22.7988 87.7695 24.3809C87.7695 25.9453 89.0176 27.2109 90.5996 27.2109ZM90.5996 14.6426C92.1641 14.6426 93.4297 13.377 93.4297 11.8125C93.4297 10.2305 92.1641 8.98242 90.5996 8.98242C89.0176 8.98242 87.7695 10.2305 87.7695 11.8125C87.7695 13.377 89.0176 14.6426 90.5996 14.6426ZM100.355 32.4492L109.355 1.63477H104.627L95.6094 32.4492H100.355ZM114.102 32.4492L123.102 1.63477H118.373L109.355 32.4492H114.102ZM133.297 22.9922C130.748 22.9922 129.166 20.9883 129.166 17.543C129.166 14.1152 130.766 11.9707 133.297 11.9707C135.863 11.9707 137.498 14.1504 137.498 17.543C137.498 20.9531 135.863 22.9922 133.297 22.9922ZM133.209 34.1016C138.852 34.1016 142.613 31.2363 142.613 26.7363V8.15625H137.551V11.4434H137.463C136.479 9.28125 134.352 7.85742 131.645 7.85742C126.863 7.85742 123.91 11.5312 123.91 17.5078C123.91 23.3965 126.951 26.9473 131.557 26.9473C134.281 26.9473 136.496 25.5762 137.375 23.5723H137.48V26.877C137.48 29.0566 136.004 30.5332 133.35 30.5332C131.398 30.5332 129.922 29.6367 129.518 28.3359H124.49C124.895 31.6934 128.252 34.1016 133.209 34.1016ZM146.059 27H151.191V8.15625H146.059V27ZM148.625 6.08203C150.172 6.08203 151.367 4.9043 151.367 3.42773C151.367 1.93359 150.172 0.773438 148.625 0.773438C147.078 0.773438 145.883 1.93359 145.883 3.42773C145.883 4.9043 147.078 6.08203 148.625 6.08203ZM165.816 27.2988C170.562 27.2988 173.463 23.6426 173.463 17.5781C173.463 11.4961 170.545 7.85742 165.799 7.85742C163.109 7.85742 161.018 9.19336 159.98 11.4258H159.875V1.63477H154.742V27H159.805V23.7656H159.91C160.947 25.9629 163.057 27.2988 165.816 27.2988ZM164.041 11.9707C166.59 11.9707 168.207 14.1504 168.207 17.5781C168.207 21.0234 166.607 23.168 164.041 23.168C161.545 23.168 159.857 20.9883 159.857 17.5781C159.857 14.2031 161.562 11.9707 164.041 11.9707ZM187.332 27.2988C192.078 27.2988 194.979 23.6426 194.979 17.5781C194.979 11.4961 192.061 7.85742 187.314 7.85742C184.625 7.85742 182.533 9.19336 181.496 11.4258H181.391V1.63477H176.258V27H181.32V23.7656H181.426C182.463 25.9629 184.572 27.2988 187.332 27.2988ZM185.557 11.9707C188.105 11.9707 189.723 14.1504 189.723 17.5781C189.723 21.0234 188.123 23.168 185.557 23.168C183.061 23.168 181.373 20.9883 181.373 17.5781C181.373 14.2031 183.078 11.9707 185.557 11.9707ZM206.105 11.5488C208.391 11.5488 209.955 13.2012 210.061 15.6094H202.062C202.238 13.2539 203.855 11.5488 206.105 11.5488ZM210.131 21.2344C209.656 22.6758 208.215 23.6074 206.334 23.6074C203.715 23.6074 202.01 21.7617 202.01 19.0723V18.7559H215V17.1914C215 11.4609 211.537 7.75195 206.053 7.75195C200.48 7.75195 196.965 11.6543 196.965 17.666C196.965 23.6953 200.445 27.4043 206.246 27.4043C210.904 27.4043 214.279 24.9258 214.842 21.2344H210.131ZM217.654 27H222.787V16.4707C222.787 13.8164 224.264 12.2695 226.795 12.2695C227.533 12.2695 228.236 12.3926 228.658 12.5684V8.05078C228.307 7.94531 227.797 7.85742 227.199 7.85742C224.984 7.85742 223.385 9.1582 222.717 11.5488H222.611V8.15625H217.654V27ZM230.855 27H235.988V8.15625H230.855V27ZM233.422 6.08203C234.969 6.08203 236.164 4.9043 236.164 3.42773C236.164 1.93359 234.969 0.773438 233.422 0.773438C231.875 0.773438 230.68 1.93359 230.68 3.42773C230.68 4.9043 231.875 6.08203 233.422 6.08203ZM239.1 13.6934C239.1 16.4707 240.928 18.334 244.496 19.1426L247.977 19.916C249.664 20.3203 250.297 20.8477 250.297 21.7969C250.297 23.0273 249.119 23.8008 247.168 23.8008C245.129 23.8008 243.881 22.8867 243.635 21.3047H238.625C238.906 24.9785 242 27.4043 247.027 27.4043C252.002 27.4043 255.412 24.9609 255.412 21.252C255.412 18.4395 253.883 16.9453 250.104 16.1016L246.5 15.3281C244.848 14.9414 244.039 14.3086 244.039 13.377C244.039 12.1641 245.199 11.3555 246.975 11.3555C248.873 11.3555 250.086 12.2871 250.191 13.7988H254.92C254.85 10.1426 251.773 7.75195 247.045 7.75195C242.211 7.75195 239.1 10.1074 239.1 13.6934ZM258.102 27H263.234V16.2422C263.234 13.7637 264.658 12.0586 267.084 12.0586C269.422 12.0586 270.617 13.5352 270.617 15.9609V27H275.75V14.8711C275.75 10.5117 273.359 7.80469 269.176 7.80469C266.311 7.80469 264.254 9.14062 263.252 11.5137H263.146V1.63477H258.102V27ZM282.113 32.4492L291.113 1.63477H286.385L277.367 32.4492H282.113ZM372.957 16.0312C374.557 17.6309 375.91 18.2988 377.492 18.2988C381.166 18.2988 383.328 15.416 383.117 10.8457H379.127C379.057 12.8848 378.354 13.9746 377.07 13.9746C376.297 13.9746 375.682 13.5879 374.662 12.5508C373.062 10.9512 371.691 10.2656 370.092 10.2656C366.418 10.2656 364.238 13.1484 364.449 17.7188H368.457C368.527 15.6621 369.213 14.5898 370.496 14.5898C371.287 14.5898 371.92 14.9766 372.957 16.0312ZM467.281 16.0312C468.881 17.6309 470.234 18.2988 471.816 18.2988C475.49 18.2988 477.652 15.416 477.441 10.8457H473.451C473.381 12.8848 472.678 13.9746 471.395 13.9746C470.621 13.9746 470.006 13.5879 468.986 12.5508C467.387 10.9512 466.016 10.2656 464.416 10.2656C460.742 10.2656 458.562 13.1484 458.773 17.7188H462.781C462.852 15.6621 463.537 14.5898 464.82 14.5898C465.611 14.5898 466.244 14.9766 467.281 16.0312Z" fill="white"/>
<path d="M303.98 27.2988C308.727 27.2988 311.627 23.6426 311.627 17.5781C311.627 11.4961 308.709 7.85742 303.963 7.85742C301.273 7.85742 299.182 9.19336 298.145 11.4258H298.039V1.63477H292.906V27H297.969V23.7656H298.074C299.111 25.9629 301.221 27.2988 303.98 27.2988ZM302.205 11.9707C304.754 11.9707 306.371 14.1504 306.371 17.5781C306.371 21.0234 304.771 23.168 302.205 23.168C299.709 23.168 298.021 20.9883 298.021 17.5781C298.021 14.2031 299.727 11.9707 302.205 11.9707ZM314.422 27H319.555V1.63477H314.422V27ZM330.295 23.5898C328.555 23.5898 327.395 22.7109 327.395 21.3047C327.395 19.9688 328.484 19.1074 330.4 18.9668L334.373 18.7207V20.0918C334.373 22.1309 332.527 23.5898 330.295 23.5898ZM328.607 27.2988C330.963 27.2988 333.301 26.1211 334.355 24.1172H334.461V27H339.418V14.0449C339.418 10.248 336.271 7.75195 331.438 7.75195C326.445 7.75195 323.334 10.2656 323.141 13.9219H327.834C328.08 12.5332 329.293 11.584 331.209 11.584C333.143 11.584 334.373 12.6035 334.373 14.3613V15.6094L329.627 15.8906C324.934 16.1719 322.297 18.1582 322.297 21.5859C322.297 24.9785 325.021 27.2988 328.607 27.2988ZM342.863 27H347.996V16.2422C347.996 13.7637 349.42 12.0586 351.846 12.0586C354.184 12.0586 355.379 13.5352 355.379 15.9609V27H360.512V14.8711C360.512 10.5117 358.121 7.80469 353.938 7.80469C351.072 7.80469 349.016 9.14062 348.014 11.5137H347.908V1.63477H342.863V27ZM398.305 27.2988C403.051 27.2988 405.951 23.6426 405.951 17.5781C405.951 11.4961 403.033 7.85742 398.287 7.85742C395.598 7.85742 393.506 9.19336 392.469 11.4258H392.363V1.63477H387.23V27H392.293V23.7656H392.398C393.436 25.9629 395.545 27.2988 398.305 27.2988ZM396.529 11.9707C399.078 11.9707 400.695 14.1504 400.695 17.5781C400.695 21.0234 399.096 23.168 396.529 23.168C394.033 23.168 392.346 20.9883 392.346 17.5781C392.346 14.2031 394.051 11.9707 396.529 11.9707ZM408.746 27H413.879V1.63477H408.746V27ZM424.619 23.5898C422.879 23.5898 421.719 22.7109 421.719 21.3047C421.719 19.9688 422.809 19.1074 424.725 18.9668L428.697 18.7207V20.0918C428.697 22.1309 426.852 23.5898 424.619 23.5898ZM422.932 27.2988C425.287 27.2988 427.625 26.1211 428.68 24.1172H428.785V27H433.742V14.0449C433.742 10.248 430.596 7.75195 425.762 7.75195C420.77 7.75195 417.658 10.2656 417.465 13.9219H422.158C422.404 12.5332 423.617 11.584 425.533 11.584C427.467 11.584 428.697 12.6035 428.697 14.3613V15.6094L423.951 15.8906C419.258 16.1719 416.621 18.1582 416.621 21.5859C416.621 24.9785 419.346 27.2988 422.932 27.2988ZM437.188 27H442.32V16.2422C442.32 13.7637 443.744 12.0586 446.17 12.0586C448.508 12.0586 449.703 13.5352 449.703 15.9609V27H454.836V14.8711C454.836 10.5117 452.445 7.80469 448.262 7.80469C445.396 7.80469 443.34 9.14062 442.338 11.5137H442.232V1.63477H437.188V27ZM492.629 27.2988C497.375 27.2988 500.275 23.6426 500.275 17.5781C500.275 11.4961 497.357 7.85742 492.611 7.85742C489.922 7.85742 487.83 9.19336 486.793 11.4258H486.688V1.63477H481.555V27H486.617V23.7656H486.723C487.76 25.9629 489.869 27.2988 492.629 27.2988ZM490.854 11.9707C493.402 11.9707 495.02 14.1504 495.02 17.5781C495.02 21.0234 493.42 23.168 490.854 23.168C488.357 23.168 486.67 20.9883 486.67 17.5781C486.67 14.2031 488.375 11.9707 490.854 11.9707ZM503.07 27H508.203V1.63477H503.07V27ZM518.943 23.5898C517.203 23.5898 516.043 22.7109 516.043 21.3047C516.043 19.9688 517.133 19.1074 519.049 18.9668L523.021 18.7207V20.0918C523.021 22.1309 521.176 23.5898 518.943 23.5898ZM517.256 27.2988C519.611 27.2988 521.949 26.1211 523.004 24.1172H523.109V27H528.066V14.0449C528.066 10.248 524.92 7.75195 520.086 7.75195C515.094 7.75195 511.982 10.2656 511.789 13.9219H516.482C516.729 12.5332 517.941 11.584 519.857 11.584C521.791 11.584 523.021 12.6035 523.021 14.3613V15.6094L518.275 15.8906C513.582 16.1719 510.945 18.1582 510.945 21.5859C510.945 24.9785 513.67 27.2988 517.256 27.2988ZM531.512 27H536.645V16.2422C536.645 13.7637 538.068 12.0586 540.494 12.0586C542.832 12.0586 544.027 13.5352 544.027 15.9609V27H549.16V14.8711C549.16 10.5117 546.77 7.80469 542.586 7.80469C539.721 7.80469 537.664 9.14062 536.662 11.5137H536.557V1.63477H531.512V27Z" fill="#FF3434"/>
<a href="https://long-boring-urls/blah-blah-blah">
<rect fill="black" fill-opacity="0" y="9.51953" width="457.436" height="42.9609"/>
</a>
<path d="M744.793 27H749.926V16.2422C749.926 13.7637 751.35 12.0586 753.775 12.0586C756.113 12.0586 757.309 13.5352 757.309 15.9609V27H762.441V14.8711C762.441 10.5117 760.051 7.80469 755.867 7.80469C753.002 7.80469 750.945 9.14062 749.943 11.5137H749.838V1.63477H744.793V27ZM767.1 3.81445V8.15625H764.445V12.0234H767.1V21.9199C767.1 25.5938 768.822 27.0703 773.252 27.0703C774.289 27.0703 775.168 26.9824 775.695 26.8594V23.0801C775.379 23.1328 774.904 23.168 774.447 23.168C772.936 23.168 772.232 22.4824 772.232 21.041V12.0234H775.713V8.15625H772.232V3.81445H767.1ZM779.896 3.81445V8.15625H777.242V12.0234H779.896V21.9199C779.896 25.5938 781.619 27.0703 786.049 27.0703C787.086 27.0703 787.965 26.9824 788.492 26.8594V23.0801C788.176 23.1328 787.701 23.168 787.244 23.168C785.732 23.168 785.029 22.4824 785.029 21.041V12.0234H788.51V8.15625H785.029V3.81445H779.896ZM802.326 7.85742C799.602 7.85742 797.51 9.22852 796.49 11.4434H796.385V8.15625H791.322V33.1523H796.455V23.8359H796.561C797.562 25.9629 799.672 27.2988 802.414 27.2988C807.125 27.2988 810.043 23.6426 810.043 17.5781C810.043 11.4961 807.107 7.85742 802.326 7.85742ZM800.604 23.168C798.09 23.168 796.438 20.9883 796.438 17.5781C796.438 14.2031 798.09 11.9707 800.604 11.9707C803.17 11.9707 804.787 14.168 804.787 17.5781C804.787 21.0059 803.17 23.168 800.604 23.168ZM812.381 13.6934C812.381 16.4707 814.209 18.334 817.777 19.1426L821.258 19.916C822.945 20.3203 823.578 20.8477 823.578 21.7969C823.578 23.0273 822.4 23.8008 820.449 23.8008C818.41 23.8008 817.162 22.8867 816.916 21.3047H811.906C812.188 24.9785 815.281 27.4043 820.309 27.4043C825.283 27.4043 828.693 24.9609 828.693 21.252C828.693 18.4395 827.164 16.9453 823.385 16.1016L819.781 15.3281C818.129 14.9414 817.32 14.3086 817.32 13.377C817.32 12.1641 818.48 11.3555 820.256 11.3555C822.154 11.3555 823.367 12.2871 823.473 13.7988H828.201C828.131 10.1426 825.055 7.75195 820.326 7.75195C815.492 7.75195 812.381 10.1074 812.381 13.6934ZM834.6 27.2109C836.164 27.2109 837.43 25.9453 837.43 24.3809C837.43 22.7988 836.164 21.5508 834.6 21.5508C833.018 21.5508 831.77 22.7988 831.77 24.3809C831.77 25.9453 833.018 27.2109 834.6 27.2109ZM834.6 14.6426C836.164 14.6426 837.43 13.377 837.43 11.8125C837.43 10.2305 836.164 8.98242 834.6 8.98242C833.018 8.98242 831.77 10.2305 831.77 11.8125C831.77 13.377 833.018 14.6426 834.6 14.6426ZM844.355 32.4492L853.355 1.63477H848.627L839.609 32.4492H844.355ZM858.102 32.4492L867.102 1.63477H862.373L853.355 32.4492H858.102ZM877.227 11.5488C879.512 11.5488 881.076 13.2012 881.182 15.6094H873.184C873.359 13.2539 874.977 11.5488 877.227 11.5488ZM881.252 21.2344C880.777 22.6758 879.336 23.6074 877.455 23.6074C874.836 23.6074 873.131 21.7617 873.131 19.0723V18.7559H886.121V17.1914C886.121 11.4609 882.658 7.75195 877.174 7.75195C871.602 7.75195 868.086 11.6543 868.086 17.666C868.086 23.6953 871.566 27.4043 877.367 27.4043C882.025 27.4043 885.4 24.9258 885.963 21.2344H881.252ZM896.053 23.5898C894.312 23.5898 893.152 22.7109 893.152 21.3047C893.152 19.9688 894.242 19.1074 896.158 18.9668L900.131 18.7207V20.0918C900.131 22.1309 898.285 23.5898 896.053 23.5898ZM894.365 27.2988C896.721 27.2988 899.059 26.1211 900.113 24.1172H900.219V27H905.176V14.0449C905.176 10.248 902.029 7.75195 897.195 7.75195C892.203 7.75195 889.092 10.2656 888.898 13.9219H893.592C893.838 12.5332 895.051 11.584 896.967 11.584C898.9 11.584 900.131 12.6035 900.131 14.3613V15.6094L895.385 15.8906C890.691 16.1719 888.055 18.1582 888.055 21.5859C888.055 24.9785 890.779 27.2988 894.365 27.2988ZM908.041 27H923.598V23.0625H914.562V22.9746L923.387 11.4082V8.15625H908.182V12.0762H917.428V12.1816L908.041 24.082V27ZM929.012 33.9785C933.828 33.9785 936.184 32.2559 937.801 27.4219L944.287 8.15625H938.873L934.865 22.8867H934.777L930.77 8.15625H925.127L931.684 27.0176C931.719 27.0879 931.525 27.8438 931.525 27.9141C931.174 29.4082 930.242 30.0059 928.361 30.0059C928.168 30.0059 927.236 30.0059 927.078 29.9707V33.9258C927.236 33.9609 928.836 33.9785 929.012 33.9785ZM946.238 27H951.371V8.15625H946.238V27ZM948.805 6.08203C950.352 6.08203 951.547 4.9043 951.547 3.42773C951.547 1.93359 950.352 0.773438 948.805 0.773438C947.258 0.773438 946.062 1.93359 946.062 3.42773C946.062 4.9043 947.258 6.08203 948.805 6.08203ZM954.799 27H959.932V16.1895C959.932 13.7461 961.391 12.0586 963.693 12.0586C965.996 12.0586 967.156 13.4648 967.156 15.9258V27H972.289V14.8535C972.289 10.4414 969.934 7.80469 965.75 7.80469C962.85 7.80469 960.863 9.17578 959.861 11.5137H959.756V8.15625H954.799V27ZM976.912 27H982.045V12.0234H985.666V8.24414H981.922V6.99609C981.922 5.66016 982.66 4.92188 984.348 4.92188C984.857 4.92188 985.367 4.95703 985.736 5.02734V1.63477C985.139 1.51172 984.066 1.40625 983.117 1.40625C978.652 1.40625 976.912 3.12891 976.912 6.82031V8.24414H974.346V12.0234H976.912V27ZM988.373 27H993.506V16.4707C993.506 13.8164 994.982 12.2695 997.514 12.2695C998.252 12.2695 998.955 12.3926 999.377 12.5684V8.05078C999.025 7.94531 998.516 7.85742 997.918 7.85742C995.703 7.85742 994.104 9.1582 993.436 11.5488H993.33V8.15625H988.373V27ZM1008.31 23.5898C1006.57 23.5898 1005.41 22.7109 1005.41 21.3047C1005.41 19.9688 1006.5 19.1074 1008.41 18.9668L1012.38 18.7207V20.0918C1012.38 22.1309 1010.54 23.5898 1008.31 23.5898ZM1006.62 27.2988C1008.97 27.2988 1011.31 26.1211 1012.37 24.1172H1012.47V27H1017.43V14.0449C1017.43 10.248 1014.28 7.75195 1009.45 7.75195C1004.46 7.75195 1001.35 10.2656 1001.15 13.9219H1005.85C1006.09 12.5332 1007.3 11.584 1009.22 11.584C1011.15 11.584 1012.38 12.6035 1012.38 14.3613V15.6094L1007.64 15.8906C1002.95 16.1719 1000.31 18.1582 1000.31 21.5859C1000.31 24.9785 1003.03 27.2988 1006.62 27.2988ZM1024.09 27.2109C1025.66 27.2109 1026.92 25.9453 1026.92 24.3809C1026.92 22.7988 1025.66 21.5508 1024.09 21.5508C1022.51 21.5508 1021.26 22.7988 1021.26 24.3809C1021.26 25.9453 1022.51 27.2109 1024.09 27.2109ZM1047.08 15.1699C1046.86 10.8984 1043.62 7.75195 1038.52 7.75195C1032.88 7.75195 1029.28 11.5137 1029.28 17.5605C1029.28 23.7129 1032.88 27.4043 1038.56 27.4043C1043.52 27.4043 1046.84 24.5391 1047.1 20.0918H1042.32C1042 22.1484 1040.67 23.3789 1038.61 23.3789C1036.06 23.3789 1034.48 21.2695 1034.48 17.5605C1034.48 13.9219 1036.06 11.7773 1038.59 11.7773C1040.7 11.7773 1042.02 13.1836 1042.32 15.1699H1047.08ZM1058.23 27.4043C1063.92 27.4043 1067.56 23.7656 1067.56 17.5605C1067.56 11.4434 1063.87 7.75195 1058.23 7.75195C1052.59 7.75195 1048.89 11.4609 1048.89 17.5605C1048.89 23.748 1052.53 27.4043 1058.23 27.4043ZM1058.23 23.4844C1055.7 23.4844 1054.1 21.3574 1054.1 17.5781C1054.1 13.834 1055.73 11.6719 1058.23 11.6719C1060.72 11.6719 1062.34 13.834 1062.34 17.5781C1062.34 21.3574 1060.74 23.4844 1058.23 23.4844ZM1070.22 27H1075.35V15.627C1075.35 13.5176 1076.67 12.041 1078.62 12.041C1080.52 12.041 1081.66 13.2363 1081.66 15.2578V27H1086.6V15.5566C1086.6 13.4648 1087.88 12.041 1089.83 12.041C1091.82 12.041 1092.91 13.2363 1092.91 15.416V27H1098.04V14.1328C1098.04 10.3359 1095.56 7.80469 1091.87 7.80469C1089.11 7.80469 1086.86 9.29883 1086.02 11.6719H1085.91C1085.28 9.21094 1083.38 7.80469 1080.66 7.80469C1078.09 7.80469 1076.07 9.29883 1075.28 11.5664H1075.17V8.15625H1070.22V27ZM1104.37 32.4492L1113.37 1.63477H1108.64L1099.62 32.4492H1104.37Z" fill="white"/>
<path d="M1115.04 27H1120.17V15.627C1120.17 13.5176 1121.49 12.041 1123.44 12.041C1125.34 12.041 1126.48 13.2363 1126.48 15.2578V27H1131.42V15.5566C1131.42 13.4648 1132.71 12.041 1134.66 12.041C1136.64 12.041 1137.73 13.2363 1137.73 15.416V27H1142.87V14.1328C1142.87 10.3359 1140.39 7.80469 1136.7 7.80469C1133.94 7.80469 1131.69 9.29883 1130.84 11.6719H1130.74C1130.11 9.21094 1128.21 7.80469 1125.48 7.80469C1122.92 7.80469 1120.89 9.29883 1120.1 11.5664H1120V8.15625H1115.04V27ZM1154.57 11.5488C1156.86 11.5488 1158.42 13.2012 1158.53 15.6094H1150.53C1150.71 13.2539 1152.32 11.5488 1154.57 11.5488ZM1158.6 21.2344C1158.12 22.6758 1156.68 23.6074 1154.8 23.6074C1152.18 23.6074 1150.48 21.7617 1150.48 19.0723V18.7559H1163.47V17.1914C1163.47 11.4609 1160.01 7.75195 1154.52 7.75195C1148.95 7.75195 1145.43 11.6543 1145.43 17.666C1145.43 23.6953 1148.91 27.4043 1154.71 27.4043C1159.37 27.4043 1162.75 24.9258 1163.31 21.2344H1158.6ZM1173.4 23.5898C1171.66 23.5898 1170.5 22.7109 1170.5 21.3047C1170.5 19.9688 1171.59 19.1074 1173.51 18.9668L1177.48 18.7207V20.0918C1177.48 22.1309 1175.63 23.5898 1173.4 23.5898ZM1171.71 27.2988C1174.07 27.2988 1176.41 26.1211 1177.46 24.1172H1177.57V27H1182.52V14.0449C1182.52 10.248 1179.38 7.75195 1174.54 7.75195C1169.55 7.75195 1166.44 10.2656 1166.25 13.9219H1170.94C1171.19 12.5332 1172.4 11.584 1174.31 11.584C1176.25 11.584 1177.48 12.6035 1177.48 14.3613V15.6094L1172.73 15.8906C1168.04 16.1719 1165.4 18.1582 1165.4 21.5859C1165.4 24.9785 1168.13 27.2988 1171.71 27.2988ZM1185.85 27H1190.98V16.1895C1190.98 13.7461 1192.44 12.0586 1194.74 12.0586C1197.04 12.0586 1198.2 13.4648 1198.2 15.9258V27H1203.34V14.8535C1203.34 10.4414 1200.98 7.80469 1196.8 7.80469C1193.9 7.80469 1191.91 9.17578 1190.91 11.5137H1190.8V8.15625H1185.85V27ZM1206.68 27H1211.81V8.15625H1206.68V27ZM1209.24 6.08203C1210.79 6.08203 1211.98 4.9043 1211.98 3.42773C1211.98 1.93359 1210.79 0.773438 1209.24 0.773438C1207.7 0.773438 1206.5 1.93359 1206.5 3.42773C1206.5 4.9043 1207.7 6.08203 1209.24 6.08203ZM1215.24 27H1220.37V16.1895C1220.37 13.7461 1221.83 12.0586 1224.13 12.0586C1226.43 12.0586 1227.59 13.4648 1227.59 15.9258V27H1232.73V14.8535C1232.73 10.4414 1230.37 7.80469 1226.19 7.80469C1223.29 7.80469 1221.3 9.17578 1220.3 11.5137H1220.19V8.15625H1215.24V27ZM1244.68 22.9922C1242.13 22.9922 1240.55 20.9883 1240.55 17.543C1240.55 14.1152 1242.15 11.9707 1244.68 11.9707C1247.25 11.9707 1248.88 14.1504 1248.88 17.543C1248.88 20.9531 1247.25 22.9922 1244.68 22.9922ZM1244.59 34.1016C1250.23 34.1016 1254 31.2363 1254 26.7363V8.15625H1248.93V11.4434H1248.85C1247.86 9.28125 1245.73 7.85742 1243.03 7.85742C1238.25 7.85742 1235.29 11.5312 1235.29 17.5078C1235.29 23.3965 1238.33 26.9473 1242.94 26.9473C1245.66 26.9473 1247.88 25.5762 1248.76 23.5723H1248.86V26.877C1248.86 29.0566 1247.39 30.5332 1244.73 30.5332C1242.78 30.5332 1241.3 29.6367 1240.9 28.3359H1235.87C1236.28 31.6934 1239.63 34.1016 1244.59 34.1016ZM1258.72 27H1263.86V12.0234H1267.48V8.24414H1263.73V6.99609C1263.73 5.66016 1264.47 4.92188 1266.16 4.92188C1266.67 4.92188 1267.18 4.95703 1267.55 5.02734V1.63477C1266.95 1.51172 1265.88 1.40625 1264.93 1.40625C1260.46 1.40625 1258.72 3.12891 1258.72 6.82031V8.24414H1256.16V12.0234H1258.72V27ZM1287.59 8.15625H1282.46V18.9492C1282.46 21.4453 1281.03 23.0801 1278.75 23.0801C1276.48 23.0801 1275.23 21.7441 1275.23 19.2305V8.15625H1270.1V20.3027C1270.1 24.6973 1272.8 27.3516 1276.88 27.3516C1279.73 27.3516 1281.59 25.9805 1282.53 23.6074H1282.63V27H1287.59V8.15625ZM1291.05 27H1296.18V1.63477H1291.05V27Z" fill="#0066FF"/>
<a href="https://long-boring-urls/blah-blah-blah">
<rect fill="black" fill-opacity="0" y="9.51953" width="370.371" height="42.9609"/>
</a>
<path d="M680.048 72.4862C672.888 73.3405 668.787 64.4832 674.003 59.4332V59.4332C675.292 58.1852 676.976 57.4408 678.754 57.3331L728.539 54.3158C735.222 53.9108 740.365 60.1794 738.753 66.7644L727.798 111.508C726.722 115.906 722.288 118.555 717.974 117.378V117.378C713.543 116.169 711.042 111.424 712.512 107.014L720.821 82.0751C723.153 75.0765 717.507 68.0167 710.268 68.8804L680.048 72.4862Z" fill="#0066FF"/>
<path d="M555 79.927C555 72.7759 563.749 69.3106 568.645 74.522L572.518 78.6432C607.71 116.096 667.425 115.376 701.704 77.0861L703.597 74.9719C708.298 69.7198 717 73.0458 717 80.0951V80.0951C717 81.687 716.499 83.249 715.578 84.5476V84.5476C677.446 138.319 597.58 139.75 558.221 86.8701L556.561 84.6398C555.548 83.2777 555 81.625 555 79.927V79.927Z" fill="#0066FF"/>
</svg>
