<svg width="514" height="118" viewBox="0 0 514 118" fill="none" xmlns="http://www.w3.org/2000/svg">
<path d="M0.792969 27H5.92578V16.2422C5.92578 13.7637 7.34961 12.0586 9.77539 12.0586C12.1133 12.0586 13.3086 13.5352 13.3086 15.9609V27H18.4414V14.8711C18.4414 10.5117 16.0508 7.80469 11.8672 7.80469C9.00195 7.80469 6.94531 9.14062 5.94336 11.5137H5.83789V1.63477H0.792969V27ZM23.0996 3.81445V8.15625H20.4453V12.0234H23.0996V21.9199C23.0996 25.5938 24.8223 27.0703 29.252 27.0703C30.2891 27.0703 31.168 26.9824 31.6953 26.8594V23.0801C31.3789 23.1328 30.9043 23.168 30.4473 23.168C28.9355 23.168 28.2324 22.4824 28.2324 21.041V12.0234H31.7129V8.15625H28.2324V3.81445H23.0996ZM35.8965 3.81445V8.15625H33.2422V12.0234H35.8965V21.9199C35.8965 25.5938 37.6191 27.0703 42.0488 27.0703C43.0859 27.0703 43.9648 26.9824 44.4922 26.8594V23.0801C44.1758 23.1328 43.7012 23.168 43.2441 23.168C41.7324 23.168 41.0293 22.4824 41.0293 21.041V12.0234H44.5098V8.15625H41.0293V3.81445H35.8965ZM58.3262 7.85742C55.6016 7.85742 53.5098 9.22852 52.4902 11.4434H52.3848V8.15625H47.3223V33.1523H52.4551V23.8359H52.5605C53.5625 25.9629 55.6719 27.2988 58.4141 27.2988C63.125 27.2988 66.043 23.6426 66.043 17.5781C66.043 11.4961 63.1074 7.85742 58.3262 7.85742ZM56.6035 23.168C54.0898 23.168 52.4375 20.9883 52.4375 17.5781C52.4375 14.2031 54.0898 11.9707 56.6035 11.9707C59.1699 11.9707 60.7871 14.168 60.7871 17.5781C60.7871 21.0059 59.1699 23.168 56.6035 23.168ZM68.3809 13.6934C68.3809 16.4707 70.209 18.334 73.7773 19.1426L77.2578 19.916C78.9453 20.3203 79.5781 20.8477 79.5781 21.7969C79.5781 23.0273 78.4004 23.8008 76.4492 23.8008C74.4102 23.8008 73.1621 22.8867 72.916 21.3047H67.9062C68.1875 24.9785 71.2812 27.4043 76.3086 27.4043C81.2832 27.4043 84.6934 24.9609 84.6934 21.252C84.6934 18.4395 83.1641 16.9453 79.3848 16.1016L75.7812 15.3281C74.1289 14.9414 73.3203 14.3086 73.3203 13.377C73.3203 12.1641 74.4805 11.3555 76.2559 11.3555C78.1543 11.3555 79.3672 12.2871 79.4727 13.7988H84.2012C84.1309 10.1426 81.0547 7.75195 76.3262 7.75195C71.4922 7.75195 68.3809 10.1074 68.3809 13.6934ZM90.5996 27.2109C92.1641 27.2109 93.4297 25.9453 93.4297 24.3809C93.4297 22.7988 92.1641 21.5508 90.5996 21.5508C89.0176 21.5508 87.7695 22.7988 87.7695 24.3809C87.7695 25.9453 89.0176 27.2109 90.5996 27.2109ZM90.5996 14.6426C92.1641 14.6426 93.4297 13.377 93.4297 11.8125C93.4297 10.2305 92.1641 8.98242 90.5996 8.98242C89.0176 8.98242 87.7695 10.2305 87.7695 11.8125C87.7695 13.377 89.0176 14.6426 90.5996 14.6426ZM100.355 32.4492L109.355 1.63477H104.627L95.6094 32.4492H100.355ZM114.102 32.4492L123.102 1.63477H118.373L109.355 32.4492H114.102ZM133.297 22.9922C130.748 22.9922 129.166 20.9883 129.166 17.543C129.166 14.1152 130.766 11.9707 133.297 11.9707C135.863 11.9707 137.498 14.1504 137.498 17.543C137.498 20.9531 135.863 22.9922 133.297 22.9922ZM133.209 34.1016C138.852 34.1016 142.613 31.2363 142.613 26.7363V8.15625H137.551V11.4434H137.463C136.479 9.28125 134.352 7.85742 131.645 7.85742C126.863 7.85742 123.91 11.5312 123.91 17.5078C123.91 23.3965 126.951 26.9473 131.557 26.9473C134.281 26.9473 136.496 25.5762 137.375 23.5723H137.48V26.877C137.48 29.0566 136.004 30.5332 133.35 30.5332C131.398 30.5332 129.922 29.6367 129.518 28.3359H124.49C124.895 31.6934 128.252 34.1016 133.209 34.1016ZM146.059 27H151.191V8.15625H146.059V27ZM148.625 6.08203C150.172 6.08203 151.367 4.9043 151.367 3.42773C151.367 1.93359 150.172 0.773438 148.625 0.773438C147.078 0.773438 145.883 1.93359 145.883 3.42773C145.883 4.9043 147.078 6.08203 148.625 6.08203ZM165.816 27.2988C170.562 27.2988 173.463 23.6426 173.463 17.5781C173.463 11.4961 170.545 7.85742 165.799 7.85742C163.109 7.85742 161.018 9.19336 159.98 11.4258H159.875V1.63477H154.742V27H159.805V23.7656H159.91C160.947 25.9629 163.057 27.2988 165.816 27.2988ZM164.041 11.9707C166.59 11.9707 168.207 14.1504 168.207 17.5781C168.207 21.0234 166.607 23.168 164.041 23.168C161.545 23.168 159.857 20.9883 159.857 17.5781C159.857 14.2031 161.562 11.9707 164.041 11.9707ZM187.332 27.2988C192.078 27.2988 194.979 23.6426 194.979 17.5781C194.979 11.4961 192.061 7.85742 187.314 7.85742C184.625 7.85742 182.533 9.19336 181.496 11.4258H181.391V1.63477H176.258V27H181.32V23.7656H181.426C182.463 25.9629 184.572 27.2988 187.332 27.2988ZM185.557 11.9707C188.105 11.9707 189.723 14.1504 189.723 17.5781C189.723 21.0234 188.123 23.168 185.557 23.168C183.061 23.168 181.373 20.9883 181.373 17.5781C181.373 14.2031 183.078 11.9707 185.557 11.9707ZM206.105 11.5488C208.391 11.5488 209.955 13.2012 210.061 15.6094H202.062C202.238 13.2539 203.855 11.5488 206.105 11.5488ZM210.131 21.2344C209.656 22.6758 208.215 23.6074 206.334 23.6074C203.715 23.6074 202.01 21.7617 202.01 19.0723V18.7559H215V17.1914C215 11.4609 211.537 7.75195 206.053 7.75195C200.48 7.75195 196.965 11.6543 196.965 17.666C196.965 23.6953 200.445 27.4043 206.246 27.4043C210.904 27.4043 214.279 24.9258 214.842 21.2344H210.131ZM217.654 27H222.787V16.4707C222.787 13.8164 224.264 12.2695 226.795 12.2695C227.533 12.2695 228.236 12.3926 228.658 12.5684V8.05078C228.307 7.94531 227.797 7.85742 227.199 7.85742C224.984 7.85742 223.385 9.1582 222.717 11.5488H222.611V8.15625H217.654V27ZM230.855 27H235.988V8.15625H230.855V27ZM233.422 6.08203C234.969 6.08203 236.164 4.9043 236.164 3.42773C236.164 1.93359 234.969 0.773438 233.422 0.773438C231.875 0.773438 230.68 1.93359 230.68 3.42773C230.68 4.9043 231.875 6.08203 233.422 6.08203ZM239.1 13.6934C239.1 16.4707 240.928 18.334 244.496 19.1426L247.977 19.916C249.664 20.3203 250.297 20.8477 250.297 21.7969C250.297 23.0273 249.119 23.8008 247.168 23.8008C245.129 23.8008 243.881 22.8867 243.635 21.3047H238.625C238.906 24.9785 242 27.4043 247.027 27.4043C252.002 27.4043 255.412 24.9609 255.412 21.252C255.412 18.4395 253.883 16.9453 250.104 16.1016L246.5 15.3281C244.848 14.9414 244.039 14.3086 244.039 13.377C244.039 12.1641 245.199 11.3555 246.975 11.3555C248.873 11.3555 250.086 12.2871 250.191 13.7988H254.92C254.85 10.1426 251.773 7.75195 247.045 7.75195C242.211 7.75195 239.1 10.1074 239.1 13.6934ZM258.102 27H263.234V16.2422C263.234 13.7637 264.658 12.0586 267.084 12.0586C269.422 12.0586 270.617 13.5352 270.617 15.9609V27H275.75V14.8711C275.75 10.5117 273.359 7.80469 269.176 7.80469C266.311 7.80469 264.254 9.14062 263.252 11.5137H263.146V1.63477H258.102V27ZM282.113 32.4492L291.113 1.63477H286.385L277.367 32.4492H282.113ZM372.957 16.0312C374.557 17.6309 375.91 18.2988 377.492 18.2988C381.166 18.2988 383.328 15.416 383.117 10.8457H379.127C379.057 12.8848 378.354 13.9746 377.07 13.9746C376.297 13.9746 375.682 13.5879 374.662 12.5508C373.062 10.9512 371.691 10.2656 370.092 10.2656C366.418 10.2656 364.238 13.1484 364.449 17.7188H368.457C368.527 15.6621 369.213 14.5898 370.496 14.5898C371.287 14.5898 371.92 14.9766 372.957 16.0312Z" fill="black"/>
<path d="M303.98 27.2988C308.727 27.2988 311.627 23.6426 311.627 17.5781C311.627 11.4961 308.709 7.85742 303.963 7.85742C301.273 7.85742 299.182 9.19336 298.145 11.4258H298.039V1.63477H292.906V27H297.969V23.7656H298.074C299.111 25.9629 301.221 27.2988 303.98 27.2988ZM302.205 11.9707C304.754 11.9707 306.371 14.1504 306.371 17.5781C306.371 21.0234 304.771 23.168 302.205 23.168C299.709 23.168 298.021 20.9883 298.021 17.5781C298.021 14.2031 299.727 11.9707 302.205 11.9707ZM314.422 27H319.555V1.63477H314.422V27ZM330.295 23.5898C328.555 23.5898 327.395 22.7109 327.395 21.3047C327.395 19.9688 328.484 19.1074 330.4 18.9668L334.373 18.7207V20.0918C334.373 22.1309 332.527 23.5898 330.295 23.5898ZM328.607 27.2988C330.963 27.2988 333.301 26.1211 334.355 24.1172H334.461V27H339.418V14.0449C339.418 10.248 336.271 7.75195 331.438 7.75195C326.445 7.75195 323.334 10.2656 323.141 13.9219H327.834C328.08 12.5332 329.293 11.584 331.209 11.584C333.143 11.584 334.373 12.6035 334.373 14.3613V15.6094L329.627 15.8906C324.934 16.1719 322.297 18.1582 322.297 21.5859C322.297 24.9785 325.021 27.2988 328.607 27.2988ZM342.863 27H347.996V16.2422C347.996 13.7637 349.42 12.0586 351.846 12.0586C354.184 12.0586 355.379 13.5352 355.379 15.9609V27H360.512V14.8711C360.512 10.5117 358.121 7.80469 353.938 7.80469C351.072 7.80469 349.016 9.14062 348.014 11.5137H347.908V1.63477H342.863V27ZM398.305 27.2988C403.051 27.2988 405.951 23.6426 405.951 17.5781C405.951 11.4961 403.033 7.85742 398.287 7.85742C395.598 7.85742 393.506 9.19336 392.469 11.4258H392.363V1.63477H387.23V27H392.293V23.7656H392.398C393.436 25.9629 395.545 27.2988 398.305 27.2988ZM396.529 11.9707C399.078 11.9707 400.695 14.1504 400.695 17.5781C400.695 21.0234 399.096 23.168 396.529 23.168C394.033 23.168 392.346 20.9883 392.346 17.5781C392.346 14.2031 394.051 11.9707 396.529 11.9707ZM408.746 27H413.879V1.63477H408.746V27ZM424.619 23.5898C422.879 23.5898 421.719 22.7109 421.719 21.3047C421.719 19.9688 422.809 19.1074 424.725 18.9668L428.697 18.7207V20.0918C428.697 22.1309 426.852 23.5898 424.619 23.5898ZM422.932 27.2988C425.287 27.2988 427.625 26.1211 428.68 24.1172H428.785V27H433.742V14.0449C433.742 10.248 430.596 7.75195 425.762 7.75195C420.77 7.75195 417.658 10.2656 417.465 13.9219H422.158C422.404 12.5332 423.617 11.584 425.533 11.584C427.467 11.584 428.697 12.6035 428.697 14.3613V15.6094L423.951 15.8906C419.258 16.1719 416.621 18.1582 416.621 21.5859C416.621 24.9785 419.346 27.2988 422.932 27.2988ZM437.188 27H442.32V16.2422C442.32 13.7637 443.744 12.0586 446.17 12.0586C448.508 12.0586 449.703 13.5352 449.703 15.9609V27H454.836V14.8711C454.836 10.5117 452.445 7.80469 448.262 7.80469C445.396 7.80469 443.34 9.14062 442.338 11.5137H442.232V1.63477H437.188V27Z" fill="#FF3434"/>
<a href="https://long-boring-urls/blah-blah-blah">
<rect fill="black" fill-opacity="0" y="9.51953" width="457.436" height="42.9609"/>
</a>
<path d="M3.79297 110H8.92578V99.2422C8.92578 96.7637 10.3496 95.0586 12.7754 95.0586C15.1133 95.0586 16.3086 96.5352 16.3086 98.9609V110H21.4414V97.8711C21.4414 93.5117 19.0508 90.8047 14.8672 90.8047C12.002 90.8047 9.94531 92.1406 8.94336 94.5137H8.83789V84.6348H3.79297V110ZM26.0996 86.8145V91.1562H23.4453V95.0234H26.0996V104.92C26.0996 108.594 27.8223 110.07 32.252 110.07C33.2891 110.07 34.168 109.982 34.6953 109.859V106.08C34.3789 106.133 33.9043 106.168 33.4473 106.168C31.9355 106.168 31.2324 105.482 31.2324 104.041V95.0234H34.7129V91.1562H31.2324V86.8145H26.0996ZM38.8965 86.8145V91.1562H36.2422V95.0234H38.8965V104.92C38.8965 108.594 40.6191 110.07 45.0488 110.07C46.0859 110.07 46.9648 109.982 47.4922 109.859V106.08C47.1758 106.133 46.7012 106.168 46.2441 106.168C44.7324 106.168 44.0293 105.482 44.0293 104.041V95.0234H47.5098V91.1562H44.0293V86.8145H38.8965ZM61.3262 90.8574C58.6016 90.8574 56.5098 92.2285 55.4902 94.4434H55.3848V91.1562H50.3223V116.152H55.4551V106.836H55.5605C56.5625 108.963 58.6719 110.299 61.4141 110.299C66.125 110.299 69.043 106.643 69.043 100.578C69.043 94.4961 66.1074 90.8574 61.3262 90.8574ZM59.6035 106.168C57.0898 106.168 55.4375 103.988 55.4375 100.578C55.4375 97.2031 57.0898 94.9707 59.6035 94.9707C62.1699 94.9707 63.7871 97.168 63.7871 100.578C63.7871 104.006 62.1699 106.168 59.6035 106.168ZM71.3809 96.6934C71.3809 99.4707 73.209 101.334 76.7773 102.143L80.2578 102.916C81.9453 103.32 82.5781 103.848 82.5781 104.797C82.5781 106.027 81.4004 106.801 79.4492 106.801C77.4102 106.801 76.1621 105.887 75.916 104.305H70.9062C71.1875 107.979 74.2812 110.404 79.3086 110.404C84.2832 110.404 87.6934 107.961 87.6934 104.252C87.6934 101.439 86.1641 99.9453 82.3848 99.1016L78.7812 98.3281C77.1289 97.9414 76.3203 97.3086 76.3203 96.377C76.3203 95.1641 77.4805 94.3555 79.2559 94.3555C81.1543 94.3555 82.3672 95.2871 82.4727 96.7988H87.2012C87.1309 93.1426 84.0547 90.752 79.3262 90.752C74.4922 90.752 71.3809 93.1074 71.3809 96.6934ZM93.5996 110.211C95.1641 110.211 96.4297 108.945 96.4297 107.381C96.4297 105.799 95.1641 104.551 93.5996 104.551C92.0176 104.551 90.7695 105.799 90.7695 107.381C90.7695 108.945 92.0176 110.211 93.5996 110.211ZM93.5996 97.6426C95.1641 97.6426 96.4297 96.377 96.4297 94.8125C96.4297 93.2305 95.1641 91.9824 93.5996 91.9824C92.0176 91.9824 90.7695 93.2305 90.7695 94.8125C90.7695 96.377 92.0176 97.6426 93.5996 97.6426ZM103.355 115.449L112.355 84.6348H107.627L98.6094 115.449H103.355ZM117.102 115.449L126.102 84.6348H121.373L112.355 115.449H117.102ZM134.592 110.299C137.369 110.299 139.549 108.84 140.463 106.766H140.551V110H145.613V84.6348H140.48V94.3906H140.375C139.461 92.2988 137.352 90.8574 134.627 90.8574C129.898 90.8574 126.91 94.5664 126.91 100.543C126.91 106.572 129.881 110.299 134.592 110.299ZM136.332 94.9707C138.881 94.9707 140.516 97.1504 140.516 100.578C140.516 104.023 138.881 106.168 136.332 106.168C133.748 106.168 132.166 104.041 132.166 100.578C132.166 97.1328 133.748 94.9707 136.332 94.9707ZM151.449 116.979C156.266 116.979 158.621 115.256 160.238 110.422L166.725 91.1562H161.311L157.303 105.887H157.215L153.207 91.1562H147.564L154.121 110.018C154.156 110.088 153.963 110.844 153.963 110.914C153.611 112.408 152.68 113.006 150.799 113.006C150.605 113.006 149.674 113.006 149.516 112.971V116.926C149.674 116.961 151.273 116.979 151.449 116.979ZM169.959 86.8145V91.1562H167.305V95.0234H169.959V104.92C169.959 108.594 171.682 110.07 176.111 110.07C177.148 110.07 178.027 109.982 178.555 109.859V106.08C178.238 106.133 177.764 106.168 177.307 106.168C175.795 106.168 175.092 105.482 175.092 104.041V95.0234H178.572V91.1562H175.092V86.8145H169.959ZM189.559 94.5488C191.844 94.5488 193.408 96.2012 193.514 98.6094H185.516C185.691 96.2539 187.309 94.5488 189.559 94.5488ZM193.584 104.234C193.109 105.676 191.668 106.607 189.787 106.607C187.168 106.607 185.463 104.762 185.463 102.072V101.756H198.453V100.191C198.453 94.4609 194.99 90.752 189.506 90.752C183.934 90.752 180.418 94.6543 180.418 100.666C180.418 106.695 183.898 110.404 189.699 110.404C194.357 110.404 197.732 107.926 198.295 104.234H193.584ZM204.447 110.211C206.012 110.211 207.277 108.945 207.277 107.381C207.277 105.799 206.012 104.551 204.447 104.551C202.865 104.551 201.617 105.799 201.617 107.381C201.617 108.945 202.865 110.211 204.447 110.211ZM211.215 110H216.348V91.1562H211.215V110ZM213.781 89.082C215.328 89.082 216.523 87.9043 216.523 86.4277C216.523 84.9336 215.328 83.7734 213.781 83.7734C212.234 83.7734 211.039 84.9336 211.039 86.4277C211.039 87.9043 212.234 89.082 213.781 89.082ZM228.424 110.404C234.119 110.404 237.758 106.766 237.758 100.561C237.758 94.4434 234.066 90.752 228.424 90.752C222.781 90.752 219.09 94.4609 219.09 100.561C219.09 106.748 222.729 110.404 228.424 110.404ZM228.424 106.484C225.893 106.484 224.293 104.357 224.293 100.578C224.293 96.834 225.928 94.6719 228.424 94.6719C230.92 94.6719 232.537 96.834 232.537 100.578C232.537 104.357 230.938 106.484 228.424 106.484ZM243.137 115.449L252.137 84.6348H247.408L238.391 115.449H243.137Z" fill="black"/>
<path d="M253.807 110H258.939V98.627C258.939 96.5176 260.258 95.041 262.209 95.041C264.107 95.041 265.25 96.2363 265.25 98.2578V110H270.189V98.5566C270.189 96.4648 271.473 95.041 273.424 95.041C275.41 95.041 276.5 96.2363 276.5 98.416V110H281.633V97.1328C281.633 93.3359 279.154 90.8047 275.463 90.8047C272.703 90.8047 270.453 92.2988 269.609 94.6719H269.504C268.871 92.2109 266.973 90.8047 264.248 90.8047C261.682 90.8047 259.66 92.2988 258.869 94.5664H258.764V91.1562H253.807V110ZM293.34 94.5488C295.625 94.5488 297.189 96.2012 297.295 98.6094H289.297C289.473 96.2539 291.09 94.5488 293.34 94.5488ZM297.365 104.234C296.891 105.676 295.449 106.607 293.568 106.607C290.949 106.607 289.244 104.762 289.244 102.072V101.756H302.234V100.191C302.234 94.4609 298.771 90.752 293.287 90.752C287.715 90.752 284.199 94.6543 284.199 100.666C284.199 106.695 287.68 110.404 293.48 110.404C298.139 110.404 301.514 107.926 302.076 104.234H297.365ZM312.166 106.59C310.426 106.59 309.266 105.711 309.266 104.305C309.266 102.969 310.355 102.107 312.271 101.967L316.244 101.721V103.092C316.244 105.131 314.398 106.59 312.166 106.59ZM310.479 110.299C312.834 110.299 315.172 109.121 316.227 107.117H316.332V110H321.289V97.0449C321.289 93.248 318.143 90.752 313.309 90.752C308.316 90.752 305.205 93.2656 305.012 96.9219H309.705C309.951 95.5332 311.164 94.584 313.08 94.584C315.014 94.584 316.244 95.6035 316.244 97.3613V98.6094L311.498 98.8906C306.805 99.1719 304.168 101.158 304.168 104.586C304.168 107.979 306.893 110.299 310.479 110.299ZM324.611 110H329.744V99.1895C329.744 96.7461 331.203 95.0586 333.506 95.0586C335.809 95.0586 336.969 96.4648 336.969 98.9258V110H342.102V97.8535C342.102 93.4414 339.746 90.8047 335.562 90.8047C332.662 90.8047 330.676 92.1758 329.674 94.5137H329.568V91.1562H324.611V110ZM345.441 110H350.574V91.1562H345.441V110ZM348.008 89.082C349.555 89.082 350.75 87.9043 350.75 86.4277C350.75 84.9336 349.555 83.7734 348.008 83.7734C346.461 83.7734 345.266 84.9336 345.266 86.4277C345.266 87.9043 346.461 89.082 348.008 89.082ZM354.002 110H359.135V99.1895C359.135 96.7461 360.594 95.0586 362.896 95.0586C365.199 95.0586 366.359 96.4648 366.359 98.9258V110H371.492V97.8535C371.492 93.4414 369.137 90.8047 364.953 90.8047C362.053 90.8047 360.066 92.1758 359.064 94.5137H358.959V91.1562H354.002V110ZM383.445 105.992C380.896 105.992 379.314 103.988 379.314 100.543C379.314 97.1152 380.914 94.9707 383.445 94.9707C386.012 94.9707 387.646 97.1504 387.646 100.543C387.646 103.953 386.012 105.992 383.445 105.992ZM383.357 117.102C389 117.102 392.762 114.236 392.762 109.736V91.1562H387.699V94.4434H387.611C386.627 92.2812 384.5 90.8574 381.793 90.8574C377.012 90.8574 374.059 94.5312 374.059 100.508C374.059 106.396 377.1 109.947 381.705 109.947C384.43 109.947 386.645 108.576 387.523 106.572H387.629V109.877C387.629 112.057 386.152 113.533 383.498 113.533C381.547 113.533 380.07 112.637 379.666 111.336H374.639C375.043 114.693 378.4 117.102 383.357 117.102ZM397.49 110H402.623V95.0234H406.244V91.2441H402.5V89.9961C402.5 88.6602 403.238 87.9219 404.926 87.9219C405.436 87.9219 405.945 87.957 406.314 88.0273V84.6348C405.717 84.5117 404.645 84.4062 403.695 84.4062C399.23 84.4062 397.49 86.1289 397.49 89.8203V91.2441H394.924V95.0234H397.49V110ZM426.354 91.1562H421.221V101.949C421.221 104.445 419.797 106.08 417.512 106.08C415.244 106.08 413.996 104.744 413.996 102.23V91.1562H408.863V103.303C408.863 107.697 411.57 110.352 415.648 110.352C418.496 110.352 420.359 108.98 421.291 106.607H421.396V110H426.354V91.1562ZM429.816 110H434.949V84.6348H429.816V110Z" fill="#0066FF"/>
<a href="https://long-boring-urls/blah-blah-blah">
<rect fill="black" fill-opacity="0" y="9.51953" width="250.137" height="42.9609"/>
</a>
<path d="M498.405 94.8088C503.595 94.563 506.001 101.209 501.896 104.451V104.451C500.94 105.205 499.762 105.61 498.553 105.598L466.824 105.291C459.905 105.223 455.202 98.1971 457.695 91.6503L468.092 64.3391C469.193 61.4469 472.359 59.9514 475.244 60.9612V60.9612C478.431 62.0765 479.937 65.7547 478.471 68.8409L472.595 81.2121C469.335 88.0746 474.464 95.9429 481.965 95.5875L498.405 94.8088Z" fill="#0066FF"/>
<path d="M484.794 14.0369C481.148 14.027 479.872 18.8727 483.051 20.6594L484.093 21.2447C508.061 34.7164 507.615 69.3754 483.307 82.225V82.225C480.109 83.9156 481.303 88.7587 484.92 88.7685L487.683 88.776C488.219 88.7775 488.75 88.6716 489.245 88.4647V88.4647C521.746 74.8692 521.665 28.7391 489.485 14.3983V14.3983C488.97 14.1686 488.407 14.0467 487.843 14.0452L484.794 14.0369Z" fill="#0066FF"/>
</svg>
