<svg width="1115" height="121" viewBox="0 0 1115 121" fill="none" xmlns="http://www.w3.org/2000/svg">
<path d="M0.792969 27H5.92578V16.2422C5.92578 13.7637 7.34961 12.0586 9.77539 12.0586C12.1133 12.0586 13.3086 13.5352 13.3086 15.9609V27H18.4414V14.8711C18.4414 10.5117 16.0508 7.80469 11.8672 7.80469C9.00195 7.80469 6.94531 9.14062 5.94336 11.5137H5.83789V1.63477H0.792969V27ZM23.0996 3.81445V8.15625H20.4453V12.0234H23.0996V21.9199C23.0996 25.5938 24.8223 27.0703 29.252 27.0703C30.2891 27.0703 31.168 26.9824 31.6953 26.8594V23.0801C31.3789 23.1328 30.9043 23.168 30.4473 23.168C28.9355 23.168 28.2324 22.4824 28.2324 21.041V12.0234H31.7129V8.15625H28.2324V3.81445H23.0996ZM35.8965 3.81445V8.15625H33.2422V12.0234H35.8965V21.9199C35.8965 25.5938 37.6191 27.0703 42.0488 27.0703C43.0859 27.0703 43.9648 26.9824 44.4922 26.8594V23.0801C44.1758 23.1328 43.7012 23.168 43.2441 23.168C41.7324 23.168 41.0293 22.4824 41.0293 21.041V12.0234H44.5098V8.15625H41.0293V3.81445H35.8965ZM58.3262 7.85742C55.6016 7.85742 53.5098 9.22852 52.4902 11.4434H52.3848V8.15625H47.3223V33.1523H52.4551V23.8359H52.5605C53.5625 25.9629 55.6719 27.2988 58.4141 27.2988C63.125 27.2988 66.043 23.6426 66.043 17.5781C66.043 11.4961 63.1074 7.85742 58.3262 7.85742ZM56.6035 23.168C54.0898 23.168 52.4375 20.9883 52.4375 17.5781C52.4375 14.2031 54.0898 11.9707 56.6035 11.9707C59.1699 11.9707 60.7871 14.168 60.7871 17.5781C60.7871 21.0059 59.1699 23.168 56.6035 23.168ZM68.3809 13.6934C68.3809 16.4707 70.209 18.334 73.7773 19.1426L77.2578 19.916C78.9453 20.3203 79.5781 20.8477 79.5781 21.7969C79.5781 23.0273 78.4004 23.8008 76.4492 23.8008C74.4102 23.8008 73.1621 22.8867 72.916 21.3047H67.9062C68.1875 24.9785 71.2812 27.4043 76.3086 27.4043C81.2832 27.4043 84.6934 24.9609 84.6934 21.252C84.6934 18.4395 83.1641 16.9453 79.3848 16.1016L75.7812 15.3281C74.1289 14.9414 73.3203 14.3086 73.3203 13.377C73.3203 12.1641 74.4805 11.3555 76.2559 11.3555C78.1543 11.3555 79.3672 12.2871 79.4727 13.7988H84.2012C84.1309 10.1426 81.0547 7.75195 76.3262 7.75195C71.4922 7.75195 68.3809 10.1074 68.3809 13.6934ZM90.5996 27.2109C92.1641 27.2109 93.4297 25.9453 93.4297 24.3809C93.4297 22.7988 92.1641 21.5508 90.5996 21.5508C89.0176 21.5508 87.7695 22.7988 87.7695 24.3809C87.7695 25.9453 89.0176 27.2109 90.5996 27.2109ZM90.5996 14.6426C92.1641 14.6426 93.4297 13.377 93.4297 11.8125C93.4297 10.2305 92.1641 8.98242 90.5996 8.98242C89.0176 8.98242 87.7695 10.2305 87.7695 11.8125C87.7695 13.377 89.0176 14.6426 90.5996 14.6426ZM100.355 32.4492L109.355 1.63477H104.627L95.6094 32.4492H100.355ZM114.102 32.4492L123.102 1.63477H118.373L109.355 32.4492H114.102ZM133.297 22.9922C130.748 22.9922 129.166 20.9883 129.166 17.543C129.166 14.1152 130.766 11.9707 133.297 11.9707C135.863 11.9707 137.498 14.1504 137.498 17.543C137.498 20.9531 135.863 22.9922 133.297 22.9922ZM133.209 34.1016C138.852 34.1016 142.613 31.2363 142.613 26.7363V8.15625H137.551V11.4434H137.463C136.479 9.28125 134.352 7.85742 131.645 7.85742C126.863 7.85742 123.91 11.5312 123.91 17.5078C123.91 23.3965 126.951 26.9473 131.557 26.9473C134.281 26.9473 136.496 25.5762 137.375 23.5723H137.48V26.877C137.48 29.0566 136.004 30.5332 133.35 30.5332C131.398 30.5332 129.922 29.6367 129.518 28.3359H124.49C124.895 31.6934 128.252 34.1016 133.209 34.1016ZM146.059 27H151.191V8.15625H146.059V27ZM148.625 6.08203C150.172 6.08203 151.367 4.9043 151.367 3.42773C151.367 1.93359 150.172 0.773438 148.625 0.773438C147.078 0.773438 145.883 1.93359 145.883 3.42773C145.883 4.9043 147.078 6.08203 148.625 6.08203ZM165.816 27.2988C170.562 27.2988 173.463 23.6426 173.463 17.5781C173.463 11.4961 170.545 7.85742 165.799 7.85742C163.109 7.85742 161.018 9.19336 159.98 11.4258H159.875V1.63477H154.742V27H159.805V23.7656H159.91C160.947 25.9629 163.057 27.2988 165.816 27.2988ZM164.041 11.9707C166.59 11.9707 168.207 14.1504 168.207 17.5781C168.207 21.0234 166.607 23.168 164.041 23.168C161.545 23.168 159.857 20.9883 159.857 17.5781C159.857 14.2031 161.562 11.9707 164.041 11.9707ZM187.332 27.2988C192.078 27.2988 194.979 23.6426 194.979 17.5781C194.979 11.4961 192.061 7.85742 187.314 7.85742C184.625 7.85742 182.533 9.19336 181.496 11.4258H181.391V1.63477H176.258V27H181.32V23.7656H181.426C182.463 25.9629 184.572 27.2988 187.332 27.2988ZM185.557 11.9707C188.105 11.9707 189.723 14.1504 189.723 17.5781C189.723 21.0234 188.123 23.168 185.557 23.168C183.061 23.168 181.373 20.9883 181.373 17.5781C181.373 14.2031 183.078 11.9707 185.557 11.9707ZM206.105 11.5488C208.391 11.5488 209.955 13.2012 210.061 15.6094H202.062C202.238 13.2539 203.855 11.5488 206.105 11.5488ZM210.131 21.2344C209.656 22.6758 208.215 23.6074 206.334 23.6074C203.715 23.6074 202.01 21.7617 202.01 19.0723V18.7559H215V17.1914C215 11.4609 211.537 7.75195 206.053 7.75195C200.48 7.75195 196.965 11.6543 196.965 17.666C196.965 23.6953 200.445 27.4043 206.246 27.4043C210.904 27.4043 214.279 24.9258 214.842 21.2344H210.131ZM217.654 27H222.787V16.4707C222.787 13.8164 224.264 12.2695 226.795 12.2695C227.533 12.2695 228.236 12.3926 228.658 12.5684V8.05078C228.307 7.94531 227.797 7.85742 227.199 7.85742C224.984 7.85742 223.385 9.1582 222.717 11.5488H222.611V8.15625H217.654V27ZM230.855 27H235.988V8.15625H230.855V27ZM233.422 6.08203C234.969 6.08203 236.164 4.9043 236.164 3.42773C236.164 1.93359 234.969 0.773438 233.422 0.773438C231.875 0.773438 230.68 1.93359 230.68 3.42773C230.68 4.9043 231.875 6.08203 233.422 6.08203ZM239.1 13.6934C239.1 16.4707 240.928 18.334 244.496 19.1426L247.977 19.916C249.664 20.3203 250.297 20.8477 250.297 21.7969C250.297 23.0273 249.119 23.8008 247.168 23.8008C245.129 23.8008 243.881 22.8867 243.635 21.3047H238.625C238.906 24.9785 242 27.4043 247.027 27.4043C252.002 27.4043 255.412 24.9609 255.412 21.252C255.412 18.4395 253.883 16.9453 250.104 16.1016L246.5 15.3281C244.848 14.9414 244.039 14.3086 244.039 13.377C244.039 12.1641 245.199 11.3555 246.975 11.3555C248.873 11.3555 250.086 12.2871 250.191 13.7988H254.92C254.85 10.1426 251.773 7.75195 247.045 7.75195C242.211 7.75195 239.1 10.1074 239.1 13.6934ZM258.102 27H263.234V16.2422C263.234 13.7637 264.658 12.0586 267.084 12.0586C269.422 12.0586 270.617 13.5352 270.617 15.9609V27H275.75V14.8711C275.75 10.5117 273.359 7.80469 269.176 7.80469C266.311 7.80469 264.254 9.14062 263.252 11.5137H263.146V1.63477H258.102V27ZM282.113 32.4492L291.113 1.63477H286.385L277.367 32.4492H282.113ZM372.957 16.0312C374.557 17.6309 375.91 18.2988 377.492 18.2988C381.166 18.2988 383.328 15.416 383.117 10.8457H379.127C379.057 12.8848 378.354 13.9746 377.07 13.9746C376.297 13.9746 375.682 13.5879 374.662 12.5508C373.062 10.9512 371.691 10.2656 370.092 10.2656C366.418 10.2656 364.238 13.1484 364.449 17.7188H368.457C368.527 15.6621 369.213 14.5898 370.496 14.5898C371.287 14.5898 371.92 14.9766 372.957 16.0312Z" fill="black"/>
<path d="M303.98 27.2988C308.727 27.2988 311.627 23.6426 311.627 17.5781C311.627 11.4961 308.709 7.85742 303.963 7.85742C301.273 7.85742 299.182 9.19336 298.145 11.4258H298.039V1.63477H292.906V27H297.969V23.7656H298.074C299.111 25.9629 301.221 27.2988 303.98 27.2988ZM302.205 11.9707C304.754 11.9707 306.371 14.1504 306.371 17.5781C306.371 21.0234 304.771 23.168 302.205 23.168C299.709 23.168 298.021 20.9883 298.021 17.5781C298.021 14.2031 299.727 11.9707 302.205 11.9707ZM314.422 27H319.555V1.63477H314.422V27ZM330.295 23.5898C328.555 23.5898 327.395 22.7109 327.395 21.3047C327.395 19.9688 328.484 19.1074 330.4 18.9668L334.373 18.7207V20.0918C334.373 22.1309 332.527 23.5898 330.295 23.5898ZM328.607 27.2988C330.963 27.2988 333.301 26.1211 334.355 24.1172H334.461V27H339.418V14.0449C339.418 10.248 336.271 7.75195 331.438 7.75195C326.445 7.75195 323.334 10.2656 323.141 13.9219H327.834C328.08 12.5332 329.293 11.584 331.209 11.584C333.143 11.584 334.373 12.6035 334.373 14.3613V15.6094L329.627 15.8906C324.934 16.1719 322.297 18.1582 322.297 21.5859C322.297 24.9785 325.021 27.2988 328.607 27.2988ZM342.863 27H347.996V16.2422C347.996 13.7637 349.42 12.0586 351.846 12.0586C354.184 12.0586 355.379 13.5352 355.379 15.9609V27H360.512V14.8711C360.512 10.5117 358.121 7.80469 353.938 7.80469C351.072 7.80469 349.016 9.14062 348.014 11.5137H347.908V1.63477H342.863V27ZM398.305 27.2988C403.051 27.2988 405.951 23.6426 405.951 17.5781C405.951 11.4961 403.033 7.85742 398.287 7.85742C395.598 7.85742 393.506 9.19336 392.469 11.4258H392.363V1.63477H387.23V27H392.293V23.7656H392.398C393.436 25.9629 395.545 27.2988 398.305 27.2988ZM396.529 11.9707C399.078 11.9707 400.695 14.1504 400.695 17.5781C400.695 21.0234 399.096 23.168 396.529 23.168C394.033 23.168 392.346 20.9883 392.346 17.5781C392.346 14.2031 394.051 11.9707 396.529 11.9707ZM408.746 27H413.879V1.63477H408.746V27ZM424.619 23.5898C422.879 23.5898 421.719 22.7109 421.719 21.3047C421.719 19.9688 422.809 19.1074 424.725 18.9668L428.697 18.7207V20.0918C428.697 22.1309 426.852 23.5898 424.619 23.5898ZM422.932 27.2988C425.287 27.2988 427.625 26.1211 428.68 24.1172H428.785V27H433.742V14.0449C433.742 10.248 430.596 7.75195 425.762 7.75195C420.77 7.75195 417.658 10.2656 417.465 13.9219H422.158C422.404 12.5332 423.617 11.584 425.533 11.584C427.467 11.584 428.697 12.6035 428.697 14.3613V15.6094L423.951 15.8906C419.258 16.1719 416.621 18.1582 416.621 21.5859C416.621 24.9785 419.346 27.2988 422.932 27.2988ZM437.188 27H442.32V16.2422C442.32 13.7637 443.744 12.0586 446.17 12.0586C448.508 12.0586 449.703 13.5352 449.703 15.9609V27H454.836V14.8711C454.836 10.5117 452.445 7.80469 448.262 7.80469C445.396 7.80469 443.34 9.14062 442.338 11.5137H442.232V1.63477H437.188V27Z" fill="#FF3434"/>
<a href="https://long-boring-urls/blah-blah-blah">
<rect fill="black" fill-opacity="0" y="9.51953" width="457.436" height="42.9609"/>
</a>
<path d="M683.793 27H688.926V16.2422C688.926 13.7637 690.35 12.0586 692.775 12.0586C695.113 12.0586 696.309 13.5352 696.309 15.9609V27H701.441V14.8711C701.441 10.5117 699.051 7.80469 694.867 7.80469C692.002 7.80469 689.945 9.14062 688.943 11.5137H688.838V1.63477H683.793V27ZM706.1 3.81445V8.15625H703.445V12.0234H706.1V21.9199C706.1 25.5938 707.822 27.0703 712.252 27.0703C713.289 27.0703 714.168 26.9824 714.695 26.8594V23.0801C714.379 23.1328 713.904 23.168 713.447 23.168C711.936 23.168 711.232 22.4824 711.232 21.041V12.0234H714.713V8.15625H711.232V3.81445H706.1ZM718.896 3.81445V8.15625H716.242V12.0234H718.896V21.9199C718.896 25.5938 720.619 27.0703 725.049 27.0703C726.086 27.0703 726.965 26.9824 727.492 26.8594V23.0801C727.176 23.1328 726.701 23.168 726.244 23.168C724.732 23.168 724.029 22.4824 724.029 21.041V12.0234H727.51V8.15625H724.029V3.81445H718.896ZM741.326 7.85742C738.602 7.85742 736.51 9.22852 735.49 11.4434H735.385V8.15625H730.322V33.1523H735.455V23.8359H735.561C736.562 25.9629 738.672 27.2988 741.414 27.2988C746.125 27.2988 749.043 23.6426 749.043 17.5781C749.043 11.4961 746.107 7.85742 741.326 7.85742ZM739.604 23.168C737.09 23.168 735.438 20.9883 735.438 17.5781C735.438 14.2031 737.09 11.9707 739.604 11.9707C742.17 11.9707 743.787 14.168 743.787 17.5781C743.787 21.0059 742.17 23.168 739.604 23.168ZM751.381 13.6934C751.381 16.4707 753.209 18.334 756.777 19.1426L760.258 19.916C761.945 20.3203 762.578 20.8477 762.578 21.7969C762.578 23.0273 761.4 23.8008 759.449 23.8008C757.41 23.8008 756.162 22.8867 755.916 21.3047H750.906C751.188 24.9785 754.281 27.4043 759.309 27.4043C764.283 27.4043 767.693 24.9609 767.693 21.252C767.693 18.4395 766.164 16.9453 762.385 16.1016L758.781 15.3281C757.129 14.9414 756.32 14.3086 756.32 13.377C756.32 12.1641 757.48 11.3555 759.256 11.3555C761.154 11.3555 762.367 12.2871 762.473 13.7988H767.201C767.131 10.1426 764.055 7.75195 759.326 7.75195C754.492 7.75195 751.381 10.1074 751.381 13.6934ZM773.6 27.2109C775.164 27.2109 776.43 25.9453 776.43 24.3809C776.43 22.7988 775.164 21.5508 773.6 21.5508C772.018 21.5508 770.77 22.7988 770.77 24.3809C770.77 25.9453 772.018 27.2109 773.6 27.2109ZM773.6 14.6426C775.164 14.6426 776.43 13.377 776.43 11.8125C776.43 10.2305 775.164 8.98242 773.6 8.98242C772.018 8.98242 770.77 10.2305 770.77 11.8125C770.77 13.377 772.018 14.6426 773.6 14.6426ZM783.355 32.4492L792.355 1.63477H787.627L778.609 32.4492H783.355ZM797.102 32.4492L806.102 1.63477H801.373L792.355 32.4492H797.102ZM814.592 27.2988C817.369 27.2988 819.549 25.8398 820.463 23.7656H820.551V27H825.613V1.63477H820.48V11.3906H820.375C819.461 9.29883 817.352 7.85742 814.627 7.85742C809.898 7.85742 806.91 11.5664 806.91 17.543C806.91 23.5723 809.881 27.2988 814.592 27.2988ZM816.332 11.9707C818.881 11.9707 820.516 14.1504 820.516 17.5781C820.516 21.0234 818.881 23.168 816.332 23.168C813.748 23.168 812.166 21.041 812.166 17.5781C812.166 14.1328 813.748 11.9707 816.332 11.9707ZM831.449 33.9785C836.266 33.9785 838.621 32.2559 840.238 27.4219L846.725 8.15625H841.311L837.303 22.8867H837.215L833.207 8.15625H827.564L834.121 27.0176C834.156 27.0879 833.963 27.8438 833.963 27.9141C833.611 29.4082 832.68 30.0059 830.799 30.0059C830.605 30.0059 829.674 30.0059 829.516 29.9707V33.9258C829.674 33.9609 831.273 33.9785 831.449 33.9785ZM849.959 3.81445V8.15625H847.305V12.0234H849.959V21.9199C849.959 25.5938 851.682 27.0703 856.111 27.0703C857.148 27.0703 858.027 26.9824 858.555 26.8594V23.0801C858.238 23.1328 857.764 23.168 857.307 23.168C855.795 23.168 855.092 22.4824 855.092 21.041V12.0234H858.572V8.15625H855.092V3.81445H849.959ZM869.559 11.5488C871.844 11.5488 873.408 13.2012 873.514 15.6094H865.516C865.691 13.2539 867.309 11.5488 869.559 11.5488ZM873.584 21.2344C873.109 22.6758 871.668 23.6074 869.787 23.6074C867.168 23.6074 865.463 21.7617 865.463 19.0723V18.7559H878.453V17.1914C878.453 11.4609 874.99 7.75195 869.506 7.75195C863.934 7.75195 860.418 11.6543 860.418 17.666C860.418 23.6953 863.898 27.4043 869.699 27.4043C874.357 27.4043 877.732 24.9258 878.295 21.2344H873.584ZM884.447 27.2109C886.012 27.2109 887.277 25.9453 887.277 24.3809C887.277 22.7988 886.012 21.5508 884.447 21.5508C882.865 21.5508 881.617 22.7988 881.617 24.3809C881.617 25.9453 882.865 27.2109 884.447 27.2109ZM891.215 27H896.348V8.15625H891.215V27ZM893.781 6.08203C895.328 6.08203 896.523 4.9043 896.523 3.42773C896.523 1.93359 895.328 0.773438 893.781 0.773438C892.234 0.773438 891.039 1.93359 891.039 3.42773C891.039 4.9043 892.234 6.08203 893.781 6.08203ZM908.424 27.4043C914.119 27.4043 917.758 23.7656 917.758 17.5605C917.758 11.4434 914.066 7.75195 908.424 7.75195C902.781 7.75195 899.09 11.4609 899.09 17.5605C899.09 23.748 902.729 27.4043 908.424 27.4043ZM908.424 23.4844C905.893 23.4844 904.293 21.3574 904.293 17.5781C904.293 13.834 905.928 11.6719 908.424 11.6719C910.92 11.6719 912.537 13.834 912.537 17.5781C912.537 21.3574 910.938 23.4844 908.424 23.4844ZM923.137 32.4492L932.137 1.63477H927.408L918.391 32.4492H923.137Z" fill="black"/>
<path d="M933.807 27H938.939V15.627C938.939 13.5176 940.258 12.041 942.209 12.041C944.107 12.041 945.25 13.2363 945.25 15.2578V27H950.189V15.5566C950.189 13.4648 951.473 12.041 953.424 12.041C955.41 12.041 956.5 13.2363 956.5 15.416V27H961.633V14.1328C961.633 10.3359 959.154 7.80469 955.463 7.80469C952.703 7.80469 950.453 9.29883 949.609 11.6719H949.504C948.871 9.21094 946.973 7.80469 944.248 7.80469C941.682 7.80469 939.66 9.29883 938.869 11.5664H938.764V8.15625H933.807V27ZM973.34 11.5488C975.625 11.5488 977.189 13.2012 977.295 15.6094H969.297C969.473 13.2539 971.09 11.5488 973.34 11.5488ZM977.365 21.2344C976.891 22.6758 975.449 23.6074 973.568 23.6074C970.949 23.6074 969.244 21.7617 969.244 19.0723V18.7559H982.234V17.1914C982.234 11.4609 978.771 7.75195 973.287 7.75195C967.715 7.75195 964.199 11.6543 964.199 17.666C964.199 23.6953 967.68 27.4043 973.48 27.4043C978.139 27.4043 981.514 24.9258 982.076 21.2344H977.365ZM992.166 23.5898C990.426 23.5898 989.266 22.7109 989.266 21.3047C989.266 19.9688 990.355 19.1074 992.271 18.9668L996.244 18.7207V20.0918C996.244 22.1309 994.398 23.5898 992.166 23.5898ZM990.479 27.2988C992.834 27.2988 995.172 26.1211 996.227 24.1172H996.332V27H1001.29V14.0449C1001.29 10.248 998.143 7.75195 993.309 7.75195C988.316 7.75195 985.205 10.2656 985.012 13.9219H989.705C989.951 12.5332 991.164 11.584 993.08 11.584C995.014 11.584 996.244 12.6035 996.244 14.3613V15.6094L991.498 15.8906C986.805 16.1719 984.168 18.1582 984.168 21.5859C984.168 24.9785 986.893 27.2988 990.479 27.2988ZM1004.61 27H1009.74V16.1895C1009.74 13.7461 1011.2 12.0586 1013.51 12.0586C1015.81 12.0586 1016.97 13.4648 1016.97 15.9258V27H1022.1V14.8535C1022.1 10.4414 1019.75 7.80469 1015.56 7.80469C1012.66 7.80469 1010.68 9.17578 1009.67 11.5137H1009.57V8.15625H1004.61V27ZM1025.44 27H1030.57V8.15625H1025.44V27ZM1028.01 6.08203C1029.55 6.08203 1030.75 4.9043 1030.75 3.42773C1030.75 1.93359 1029.55 0.773438 1028.01 0.773438C1026.46 0.773438 1025.27 1.93359 1025.27 3.42773C1025.27 4.9043 1026.46 6.08203 1028.01 6.08203ZM1034 27H1039.13V16.1895C1039.13 13.7461 1040.59 12.0586 1042.9 12.0586C1045.2 12.0586 1046.36 13.4648 1046.36 15.9258V27H1051.49V14.8535C1051.49 10.4414 1049.14 7.80469 1044.95 7.80469C1042.05 7.80469 1040.07 9.17578 1039.06 11.5137H1038.96V8.15625H1034V27ZM1063.45 22.9922C1060.9 22.9922 1059.31 20.9883 1059.31 17.543C1059.31 14.1152 1060.91 11.9707 1063.45 11.9707C1066.01 11.9707 1067.65 14.1504 1067.65 17.543C1067.65 20.9531 1066.01 22.9922 1063.45 22.9922ZM1063.36 34.1016C1069 34.1016 1072.76 31.2363 1072.76 26.7363V8.15625H1067.7V11.4434H1067.61C1066.63 9.28125 1064.5 7.85742 1061.79 7.85742C1057.01 7.85742 1054.06 11.5312 1054.06 17.5078C1054.06 23.3965 1057.1 26.9473 1061.71 26.9473C1064.43 26.9473 1066.64 25.5762 1067.52 23.5723H1067.63V26.877C1067.63 29.0566 1066.15 30.5332 1063.5 30.5332C1061.55 30.5332 1060.07 29.6367 1059.67 28.3359H1054.64C1055.04 31.6934 1058.4 34.1016 1063.36 34.1016ZM1077.49 27H1082.62V12.0234H1086.24V8.24414H1082.5V6.99609C1082.5 5.66016 1083.24 4.92188 1084.93 4.92188C1085.44 4.92188 1085.95 4.95703 1086.31 5.02734V1.63477C1085.72 1.51172 1084.64 1.40625 1083.7 1.40625C1079.23 1.40625 1077.49 3.12891 1077.49 6.82031V8.24414H1074.92V12.0234H1077.49V27ZM1106.35 8.15625H1101.22V18.9492C1101.22 21.4453 1099.8 23.0801 1097.51 23.0801C1095.24 23.0801 1094 21.7441 1094 19.2305V8.15625H1088.86V20.3027C1088.86 24.6973 1091.57 27.3516 1095.65 27.3516C1098.5 27.3516 1100.36 25.9805 1101.29 23.6074H1101.4V27H1106.35V8.15625ZM1109.82 27H1114.95V1.63477H1109.82V27Z" fill="#0066FF"/>
<a href="https://long-boring-urls/blah-blah-blah">
<rect fill="black" fill-opacity="0" y="9.51953" width="250.137" height="42.9609"/>
</a>
<path d="M595.048 67.4862C587.888 68.3405 583.787 59.4832 589.003 54.4332V54.4332C590.292 53.1852 591.976 52.4408 593.754 52.3331L643.539 49.3158C650.222 48.9108 655.365 55.1794 653.753 61.7644L642.798 106.508C641.722 110.906 637.288 113.555 632.974 112.378V112.378C628.543 111.169 626.042 106.424 627.512 102.014L635.821 77.0751C638.153 70.0765 632.507 63.0167 625.268 63.8804L595.048 67.4862Z" fill="#0066FF"/>
<path d="M470 74.927C470 67.7759 478.749 64.3106 483.645 69.522L487.518 73.6432C522.71 111.096 582.425 110.376 616.704 72.0861L618.597 69.9719C623.298 64.7198 632 68.0458 632 75.0951V75.0951C632 76.687 631.499 78.249 630.578 79.5476V79.5476C592.446 133.319 512.58 134.75 473.221 81.8701L471.561 79.6398C470.548 78.2777 470 76.625 470 74.927V74.927Z" fill="#0066FF"/>
</svg>
