<svg width="628" height="118" viewBox="0 0 628 118" fill="none" xmlns="http://www.w3.org/2000/svg">
<path d="M0.792969 27H5.92578V16.2422C5.92578 13.7637 7.34961 12.0586 9.77539 12.0586C12.1133 12.0586 13.3086 13.5352 13.3086 15.9609V27H18.4414V14.8711C18.4414 10.5117 16.0508 7.80469 11.8672 7.80469C9.00195 7.80469 6.94531 9.14062 5.94336 11.5137H5.83789V1.63477H0.792969V27ZM23.0996 3.81445V8.15625H20.4453V12.0234H23.0996V21.9199C23.0996 25.5938 24.8223 27.0703 29.252 27.0703C30.2891 27.0703 31.168 26.9824 31.6953 26.8594V23.0801C31.3789 23.1328 30.9043 23.168 30.4473 23.168C28.9355 23.168 28.2324 22.4824 28.2324 21.041V12.0234H31.7129V8.15625H28.2324V3.81445H23.0996ZM35.8965 3.81445V8.15625H33.2422V12.0234H35.8965V21.9199C35.8965 25.5938 37.6191 27.0703 42.0488 27.0703C43.0859 27.0703 43.9648 26.9824 44.4922 26.8594V23.0801C44.1758 23.1328 43.7012 23.168 43.2441 23.168C41.7324 23.168 41.0293 22.4824 41.0293 21.041V12.0234H44.5098V8.15625H41.0293V3.81445H35.8965ZM58.3262 7.85742C55.6016 7.85742 53.5098 9.22852 52.4902 11.4434H52.3848V8.15625H47.3223V33.1523H52.4551V23.8359H52.5605C53.5625 25.9629 55.6719 27.2988 58.4141 27.2988C63.125 27.2988 66.043 23.6426 66.043 17.5781C66.043 11.4961 63.1074 7.85742 58.3262 7.85742ZM56.6035 23.168C54.0898 23.168 52.4375 20.9883 52.4375 17.5781C52.4375 14.2031 54.0898 11.9707 56.6035 11.9707C59.1699 11.9707 60.7871 14.168 60.7871 17.5781C60.7871 21.0059 59.1699 23.168 56.6035 23.168ZM68.3809 13.6934C68.3809 16.4707 70.209 18.334 73.7773 19.1426L77.2578 19.916C78.9453 20.3203 79.5781 20.8477 79.5781 21.7969C79.5781 23.0273 78.4004 23.8008 76.4492 23.8008C74.4102 23.8008 73.1621 22.8867 72.916 21.3047H67.9062C68.1875 24.9785 71.2812 27.4043 76.3086 27.4043C81.2832 27.4043 84.6934 24.9609 84.6934 21.252C84.6934 18.4395 83.1641 16.9453 79.3848 16.1016L75.7812 15.3281C74.1289 14.9414 73.3203 14.3086 73.3203 13.377C73.3203 12.1641 74.4805 11.3555 76.2559 11.3555C78.1543 11.3555 79.3672 12.2871 79.4727 13.7988H84.2012C84.1309 10.1426 81.0547 7.75195 76.3262 7.75195C71.4922 7.75195 68.3809 10.1074 68.3809 13.6934ZM90.5996 27.2109C92.1641 27.2109 93.4297 25.9453 93.4297 24.3809C93.4297 22.7988 92.1641 21.5508 90.5996 21.5508C89.0176 21.5508 87.7695 22.7988 87.7695 24.3809C87.7695 25.9453 89.0176 27.2109 90.5996 27.2109ZM90.5996 14.6426C92.1641 14.6426 93.4297 13.377 93.4297 11.8125C93.4297 10.2305 92.1641 8.98242 90.5996 8.98242C89.0176 8.98242 87.7695 10.2305 87.7695 11.8125C87.7695 13.377 89.0176 14.6426 90.5996 14.6426ZM100.355 32.4492L109.355 1.63477H104.627L95.6094 32.4492H100.355ZM114.102 32.4492L123.102 1.63477H118.373L109.355 32.4492H114.102ZM133.297 22.9922C130.748 22.9922 129.166 20.9883 129.166 17.543C129.166 14.1152 130.766 11.9707 133.297 11.9707C135.863 11.9707 137.498 14.1504 137.498 17.543C137.498 20.9531 135.863 22.9922 133.297 22.9922ZM133.209 34.1016C138.852 34.1016 142.613 31.2363 142.613 26.7363V8.15625H137.551V11.4434H137.463C136.479 9.28125 134.352 7.85742 131.645 7.85742C126.863 7.85742 123.91 11.5312 123.91 17.5078C123.91 23.3965 126.951 26.9473 131.557 26.9473C134.281 26.9473 136.496 25.5762 137.375 23.5723H137.48V26.877C137.48 29.0566 136.004 30.5332 133.35 30.5332C131.398 30.5332 129.922 29.6367 129.518 28.3359H124.49C124.895 31.6934 128.252 34.1016 133.209 34.1016ZM146.059 27H151.191V8.15625H146.059V27ZM148.625 6.08203C150.172 6.08203 151.367 4.9043 151.367 3.42773C151.367 1.93359 150.172 0.773438 148.625 0.773438C147.078 0.773438 145.883 1.93359 145.883 3.42773C145.883 4.9043 147.078 6.08203 148.625 6.08203ZM165.816 27.2988C170.562 27.2988 173.463 23.6426 173.463 17.5781C173.463 11.4961 170.545 7.85742 165.799 7.85742C163.109 7.85742 161.018 9.19336 159.98 11.4258H159.875V1.63477H154.742V27H159.805V23.7656H159.91C160.947 25.9629 163.057 27.2988 165.816 27.2988ZM164.041 11.9707C166.59 11.9707 168.207 14.1504 168.207 17.5781C168.207 21.0234 166.607 23.168 164.041 23.168C161.545 23.168 159.857 20.9883 159.857 17.5781C159.857 14.2031 161.562 11.9707 164.041 11.9707ZM187.332 27.2988C192.078 27.2988 194.979 23.6426 194.979 17.5781C194.979 11.4961 192.061 7.85742 187.314 7.85742C184.625 7.85742 182.533 9.19336 181.496 11.4258H181.391V1.63477H176.258V27H181.32V23.7656H181.426C182.463 25.9629 184.572 27.2988 187.332 27.2988ZM185.557 11.9707C188.105 11.9707 189.723 14.1504 189.723 17.5781C189.723 21.0234 188.123 23.168 185.557 23.168C183.061 23.168 181.373 20.9883 181.373 17.5781C181.373 14.2031 183.078 11.9707 185.557 11.9707ZM206.105 11.5488C208.391 11.5488 209.955 13.2012 210.061 15.6094H202.062C202.238 13.2539 203.855 11.5488 206.105 11.5488ZM210.131 21.2344C209.656 22.6758 208.215 23.6074 206.334 23.6074C203.715 23.6074 202.01 21.7617 202.01 19.0723V18.7559H215V17.1914C215 11.4609 211.537 7.75195 206.053 7.75195C200.48 7.75195 196.965 11.6543 196.965 17.666C196.965 23.6953 200.445 27.4043 206.246 27.4043C210.904 27.4043 214.279 24.9258 214.842 21.2344H210.131ZM217.654 27H222.787V16.4707C222.787 13.8164 224.264 12.2695 226.795 12.2695C227.533 12.2695 228.236 12.3926 228.658 12.5684V8.05078C228.307 7.94531 227.797 7.85742 227.199 7.85742C224.984 7.85742 223.385 9.1582 222.717 11.5488H222.611V8.15625H217.654V27ZM230.855 27H235.988V8.15625H230.855V27ZM233.422 6.08203C234.969 6.08203 236.164 4.9043 236.164 3.42773C236.164 1.93359 234.969 0.773438 233.422 0.773438C231.875 0.773438 230.68 1.93359 230.68 3.42773C230.68 4.9043 231.875 6.08203 233.422 6.08203ZM239.1 13.6934C239.1 16.4707 240.928 18.334 244.496 19.1426L247.977 19.916C249.664 20.3203 250.297 20.8477 250.297 21.7969C250.297 23.0273 249.119 23.8008 247.168 23.8008C245.129 23.8008 243.881 22.8867 243.635 21.3047H238.625C238.906 24.9785 242 27.4043 247.027 27.4043C252.002 27.4043 255.412 24.9609 255.412 21.252C255.412 18.4395 253.883 16.9453 250.104 16.1016L246.5 15.3281C244.848 14.9414 244.039 14.3086 244.039 13.377C244.039 12.1641 245.199 11.3555 246.975 11.3555C248.873 11.3555 250.086 12.2871 250.191 13.7988H254.92C254.85 10.1426 251.773 7.75195 247.045 7.75195C242.211 7.75195 239.1 10.1074 239.1 13.6934ZM258.102 27H263.234V16.2422C263.234 13.7637 264.658 12.0586 267.084 12.0586C269.422 12.0586 270.617 13.5352 270.617 15.9609V27H275.75V14.8711C275.75 10.5117 273.359 7.80469 269.176 7.80469C266.311 7.80469 264.254 9.14062 263.252 11.5137H263.146V1.63477H258.102V27ZM282.113 32.4492L291.113 1.63477H286.385L277.367 32.4492H282.113ZM372.957 16.0312C374.557 17.6309 375.91 18.2988 377.492 18.2988C381.166 18.2988 383.328 15.416 383.117 10.8457H379.127C379.057 12.8848 378.354 13.9746 377.07 13.9746C376.297 13.9746 375.682 13.5879 374.662 12.5508C373.062 10.9512 371.691 10.2656 370.092 10.2656C366.418 10.2656 364.238 13.1484 364.449 17.7188H368.457C368.527 15.6621 369.213 14.5898 370.496 14.5898C371.287 14.5898 371.92 14.9766 372.957 16.0312ZM467.281 16.0312C468.881 17.6309 470.234 18.2988 471.816 18.2988C475.49 18.2988 477.652 15.416 477.441 10.8457H473.451C473.381 12.8848 472.678 13.9746 471.395 13.9746C470.621 13.9746 470.006 13.5879 468.986 12.5508C467.387 10.9512 466.016 10.2656 464.416 10.2656C460.742 10.2656 458.562 13.1484 458.773 17.7188H462.781C462.852 15.6621 463.537 14.5898 464.82 14.5898C465.611 14.5898 466.244 14.9766 467.281 16.0312Z" fill="#2D2D2D"/>
<path d="M303.98 27.2988C308.727 27.2988 311.627 23.6426 311.627 17.5781C311.627 11.4961 308.709 7.85742 303.963 7.85742C301.273 7.85742 299.182 9.19336 298.145 11.4258H298.039V1.63477H292.906V27H297.969V23.7656H298.074C299.111 25.9629 301.221 27.2988 303.98 27.2988ZM302.205 11.9707C304.754 11.9707 306.371 14.1504 306.371 17.5781C306.371 21.0234 304.771 23.168 302.205 23.168C299.709 23.168 298.021 20.9883 298.021 17.5781C298.021 14.2031 299.727 11.9707 302.205 11.9707ZM314.422 27H319.555V1.63477H314.422V27ZM330.295 23.5898C328.555 23.5898 327.395 22.7109 327.395 21.3047C327.395 19.9688 328.484 19.1074 330.4 18.9668L334.373 18.7207V20.0918C334.373 22.1309 332.527 23.5898 330.295 23.5898ZM328.607 27.2988C330.963 27.2988 333.301 26.1211 334.355 24.1172H334.461V27H339.418V14.0449C339.418 10.248 336.271 7.75195 331.438 7.75195C326.445 7.75195 323.334 10.2656 323.141 13.9219H327.834C328.08 12.5332 329.293 11.584 331.209 11.584C333.143 11.584 334.373 12.6035 334.373 14.3613V15.6094L329.627 15.8906C324.934 16.1719 322.297 18.1582 322.297 21.5859C322.297 24.9785 325.021 27.2988 328.607 27.2988ZM342.863 27H347.996V16.2422C347.996 13.7637 349.42 12.0586 351.846 12.0586C354.184 12.0586 355.379 13.5352 355.379 15.9609V27H360.512V14.8711C360.512 10.5117 358.121 7.80469 353.938 7.80469C351.072 7.80469 349.016 9.14062 348.014 11.5137H347.908V1.63477H342.863V27ZM398.305 27.2988C403.051 27.2988 405.951 23.6426 405.951 17.5781C405.951 11.4961 403.033 7.85742 398.287 7.85742C395.598 7.85742 393.506 9.19336 392.469 11.4258H392.363V1.63477H387.23V27H392.293V23.7656H392.398C393.436 25.9629 395.545 27.2988 398.305 27.2988ZM396.529 11.9707C399.078 11.9707 400.695 14.1504 400.695 17.5781C400.695 21.0234 399.096 23.168 396.529 23.168C394.033 23.168 392.346 20.9883 392.346 17.5781C392.346 14.2031 394.051 11.9707 396.529 11.9707ZM408.746 27H413.879V1.63477H408.746V27ZM424.619 23.5898C422.879 23.5898 421.719 22.7109 421.719 21.3047C421.719 19.9688 422.809 19.1074 424.725 18.9668L428.697 18.7207V20.0918C428.697 22.1309 426.852 23.5898 424.619 23.5898ZM422.932 27.2988C425.287 27.2988 427.625 26.1211 428.68 24.1172H428.785V27H433.742V14.0449C433.742 10.248 430.596 7.75195 425.762 7.75195C420.77 7.75195 417.658 10.2656 417.465 13.9219H422.158C422.404 12.5332 423.617 11.584 425.533 11.584C427.467 11.584 428.697 12.6035 428.697 14.3613V15.6094L423.951 15.8906C419.258 16.1719 416.621 18.1582 416.621 21.5859C416.621 24.9785 419.346 27.2988 422.932 27.2988ZM437.188 27H442.32V16.2422C442.32 13.7637 443.744 12.0586 446.17 12.0586C448.508 12.0586 449.703 13.5352 449.703 15.9609V27H454.836V14.8711C454.836 10.5117 452.445 7.80469 448.262 7.80469C445.396 7.80469 443.34 9.14062 442.338 11.5137H442.232V1.63477H437.188V27ZM492.629 27.2988C497.375 27.2988 500.275 23.6426 500.275 17.5781C500.275 11.4961 497.357 7.85742 492.611 7.85742C489.922 7.85742 487.83 9.19336 486.793 11.4258H486.688V1.63477H481.555V27H486.617V23.7656H486.723C487.76 25.9629 489.869 27.2988 492.629 27.2988ZM490.854 11.9707C493.402 11.9707 495.02 14.1504 495.02 17.5781C495.02 21.0234 493.42 23.168 490.854 23.168C488.357 23.168 486.67 20.9883 486.67 17.5781C486.67 14.2031 488.375 11.9707 490.854 11.9707ZM503.07 27H508.203V1.63477H503.07V27ZM518.943 23.5898C517.203 23.5898 516.043 22.7109 516.043 21.3047C516.043 19.9688 517.133 19.1074 519.049 18.9668L523.021 18.7207V20.0918C523.021 22.1309 521.176 23.5898 518.943 23.5898ZM517.256 27.2988C519.611 27.2988 521.949 26.1211 523.004 24.1172H523.109V27H528.066V14.0449C528.066 10.248 524.92 7.75195 520.086 7.75195C515.094 7.75195 511.982 10.2656 511.789 13.9219H516.482C516.729 12.5332 517.941 11.584 519.857 11.584C521.791 11.584 523.021 12.6035 523.021 14.3613V15.6094L518.275 15.8906C513.582 16.1719 510.945 18.1582 510.945 21.5859C510.945 24.9785 513.67 27.2988 517.256 27.2988ZM531.512 27H536.645V16.2422C536.645 13.7637 538.068 12.0586 540.494 12.0586C542.832 12.0586 544.027 13.5352 544.027 15.9609V27H549.16V14.8711C549.16 10.5117 546.77 7.80469 542.586 7.80469C539.721 7.80469 537.664 9.14062 536.662 11.5137H536.557V1.63477H531.512V27Z" fill="#FF3434"/>
<a href="https://long-boring-urls/blah-blah-blah">
<rect fill="black" fill-opacity="0" y="9.51953" width="551.76" height="42.9609"/>
</a>
<path d="M3.79297 110H8.92578V99.2422C8.92578 96.7637 10.3496 95.0586 12.7754 95.0586C15.1133 95.0586 16.3086 96.5352 16.3086 98.9609V110H21.4414V97.8711C21.4414 93.5117 19.0508 90.8047 14.8672 90.8047C12.002 90.8047 9.94531 92.1406 8.94336 94.5137H8.83789V84.6348H3.79297V110ZM26.0996 86.8145V91.1562H23.4453V95.0234H26.0996V104.92C26.0996 108.594 27.8223 110.07 32.252 110.07C33.2891 110.07 34.168 109.982 34.6953 109.859V106.08C34.3789 106.133 33.9043 106.168 33.4473 106.168C31.9355 106.168 31.2324 105.482 31.2324 104.041V95.0234H34.7129V91.1562H31.2324V86.8145H26.0996ZM38.8965 86.8145V91.1562H36.2422V95.0234H38.8965V104.92C38.8965 108.594 40.6191 110.07 45.0488 110.07C46.0859 110.07 46.9648 109.982 47.4922 109.859V106.08C47.1758 106.133 46.7012 106.168 46.2441 106.168C44.7324 106.168 44.0293 105.482 44.0293 104.041V95.0234H47.5098V91.1562H44.0293V86.8145H38.8965ZM61.3262 90.8574C58.6016 90.8574 56.5098 92.2285 55.4902 94.4434H55.3848V91.1562H50.3223V116.152H55.4551V106.836H55.5605C56.5625 108.963 58.6719 110.299 61.4141 110.299C66.125 110.299 69.043 106.643 69.043 100.578C69.043 94.4961 66.1074 90.8574 61.3262 90.8574ZM59.6035 106.168C57.0898 106.168 55.4375 103.988 55.4375 100.578C55.4375 97.2031 57.0898 94.9707 59.6035 94.9707C62.1699 94.9707 63.7871 97.168 63.7871 100.578C63.7871 104.006 62.1699 106.168 59.6035 106.168ZM71.3809 96.6934C71.3809 99.4707 73.209 101.334 76.7773 102.143L80.2578 102.916C81.9453 103.32 82.5781 103.848 82.5781 104.797C82.5781 106.027 81.4004 106.801 79.4492 106.801C77.4102 106.801 76.1621 105.887 75.916 104.305H70.9062C71.1875 107.979 74.2812 110.404 79.3086 110.404C84.2832 110.404 87.6934 107.961 87.6934 104.252C87.6934 101.439 86.1641 99.9453 82.3848 99.1016L78.7812 98.3281C77.1289 97.9414 76.3203 97.3086 76.3203 96.377C76.3203 95.1641 77.4805 94.3555 79.2559 94.3555C81.1543 94.3555 82.3672 95.2871 82.4727 96.7988H87.2012C87.1309 93.1426 84.0547 90.752 79.3262 90.752C74.4922 90.752 71.3809 93.1074 71.3809 96.6934ZM93.5996 110.211C95.1641 110.211 96.4297 108.945 96.4297 107.381C96.4297 105.799 95.1641 104.551 93.5996 104.551C92.0176 104.551 90.7695 105.799 90.7695 107.381C90.7695 108.945 92.0176 110.211 93.5996 110.211ZM93.5996 97.6426C95.1641 97.6426 96.4297 96.377 96.4297 94.8125C96.4297 93.2305 95.1641 91.9824 93.5996 91.9824C92.0176 91.9824 90.7695 93.2305 90.7695 94.8125C90.7695 96.377 92.0176 97.6426 93.5996 97.6426ZM103.355 115.449L112.355 84.6348H107.627L98.6094 115.449H103.355ZM117.102 115.449L126.102 84.6348H121.373L112.355 115.449H117.102ZM136.227 94.5488C138.512 94.5488 140.076 96.2012 140.182 98.6094H132.184C132.359 96.2539 133.977 94.5488 136.227 94.5488ZM140.252 104.234C139.777 105.676 138.336 106.607 136.455 106.607C133.836 106.607 132.131 104.762 132.131 102.072V101.756H145.121V100.191C145.121 94.4609 141.658 90.752 136.174 90.752C130.602 90.752 127.086 94.6543 127.086 100.666C127.086 106.695 130.566 110.404 136.367 110.404C141.025 110.404 144.4 107.926 144.963 104.234H140.252ZM155.053 106.59C153.312 106.59 152.152 105.711 152.152 104.305C152.152 102.969 153.242 102.107 155.158 101.967L159.131 101.721V103.092C159.131 105.131 157.285 106.59 155.053 106.59ZM153.365 110.299C155.721 110.299 158.059 109.121 159.113 107.117H159.219V110H164.176V97.0449C164.176 93.248 161.029 90.752 156.195 90.752C151.203 90.752 148.092 93.2656 147.898 96.9219H152.592C152.838 95.5332 154.051 94.584 155.967 94.584C157.9 94.584 159.131 95.6035 159.131 97.3613V98.6094L154.385 98.8906C149.691 99.1719 147.055 101.158 147.055 104.586C147.055 107.979 149.779 110.299 153.365 110.299ZM167.041 110H182.598V106.062H173.562V105.975L182.387 94.4082V91.1562H167.182V95.0762H176.428V95.1816L167.041 107.082V110ZM188.012 116.979C192.828 116.979 195.184 115.256 196.801 110.422L203.287 91.1562H197.873L193.865 105.887H193.777L189.77 91.1562H184.127L190.684 110.018C190.719 110.088 190.525 110.844 190.525 110.914C190.174 112.408 189.242 113.006 187.361 113.006C187.168 113.006 186.236 113.006 186.078 112.971V116.926C186.236 116.961 187.836 116.979 188.012 116.979ZM205.238 110H210.371V91.1562H205.238V110ZM207.805 89.082C209.352 89.082 210.547 87.9043 210.547 86.4277C210.547 84.9336 209.352 83.7734 207.805 83.7734C206.258 83.7734 205.062 84.9336 205.062 86.4277C205.062 87.9043 206.258 89.082 207.805 89.082ZM213.799 110H218.932V99.1895C218.932 96.7461 220.391 95.0586 222.693 95.0586C224.996 95.0586 226.156 96.4648 226.156 98.9258V110H231.289V97.8535C231.289 93.4414 228.934 90.8047 224.75 90.8047C221.85 90.8047 219.863 92.1758 218.861 94.5137H218.756V91.1562H213.799V110ZM235.912 110H241.045V95.0234H244.666V91.2441H240.922V89.9961C240.922 88.6602 241.66 87.9219 243.348 87.9219C243.857 87.9219 244.367 87.957 244.736 88.0273V84.6348C244.139 84.5117 243.066 84.4062 242.117 84.4062C237.652 84.4062 235.912 86.1289 235.912 89.8203V91.2441H233.346V95.0234H235.912V110ZM247.373 110H252.506V99.4707C252.506 96.8164 253.982 95.2695 256.514 95.2695C257.252 95.2695 257.955 95.3926 258.377 95.5684V91.0508C258.025 90.9453 257.516 90.8574 256.918 90.8574C254.703 90.8574 253.104 92.1582 252.436 94.5488H252.33V91.1562H247.373V110ZM267.307 106.59C265.566 106.59 264.406 105.711 264.406 104.305C264.406 102.969 265.496 102.107 267.412 101.967L271.385 101.721V103.092C271.385 105.131 269.539 106.59 267.307 106.59ZM265.619 110.299C267.975 110.299 270.312 109.121 271.367 107.117H271.473V110H276.43V97.0449C276.43 93.248 273.283 90.752 268.449 90.752C263.457 90.752 260.346 93.2656 260.152 96.9219H264.846C265.092 95.5332 266.305 94.584 268.221 94.584C270.154 94.584 271.385 95.6035 271.385 97.3613V98.6094L266.639 98.8906C261.945 99.1719 259.309 101.158 259.309 104.586C259.309 107.979 262.033 110.299 265.619 110.299ZM283.092 110.211C284.656 110.211 285.922 108.945 285.922 107.381C285.922 105.799 284.656 104.551 283.092 104.551C281.51 104.551 280.262 105.799 280.262 107.381C280.262 108.945 281.51 110.211 283.092 110.211ZM306.084 98.1699C305.855 93.8984 302.621 90.752 297.523 90.752C291.881 90.752 288.277 94.5137 288.277 100.561C288.277 106.713 291.881 110.404 297.559 110.404C302.516 110.404 305.838 107.539 306.102 103.092H301.32C301.004 105.148 299.668 106.379 297.611 106.379C295.062 106.379 293.48 104.27 293.48 100.561C293.48 96.9219 295.062 94.7773 297.594 94.7773C299.703 94.7773 301.021 96.1836 301.32 98.1699H306.084ZM317.229 110.404C322.924 110.404 326.562 106.766 326.562 100.561C326.562 94.4434 322.871 90.752 317.229 90.752C311.586 90.752 307.895 94.4609 307.895 100.561C307.895 106.748 311.533 110.404 317.229 110.404ZM317.229 106.484C314.697 106.484 313.098 104.357 313.098 100.578C313.098 96.834 314.732 94.6719 317.229 94.6719C319.725 94.6719 321.342 96.834 321.342 100.578C321.342 104.357 319.742 106.484 317.229 106.484ZM329.217 110H334.35V98.627C334.35 96.5176 335.668 95.041 337.619 95.041C339.518 95.041 340.66 96.2363 340.66 98.2578V110H345.6V98.5566C345.6 96.4648 346.883 95.041 348.834 95.041C350.82 95.041 351.91 96.2363 351.91 98.416V110H357.043V97.1328C357.043 93.3359 354.564 90.8047 350.873 90.8047C348.113 90.8047 345.863 92.2988 345.02 94.6719H344.914C344.281 92.2109 342.383 90.8047 339.658 90.8047C337.092 90.8047 335.07 92.2988 334.279 94.5664H334.174V91.1562H329.217V110ZM363.371 115.449L372.371 84.6348H367.643L358.625 115.449H363.371Z" fill="#2D2D2D"/>
<path d="M374.041 110H379.174V98.627C379.174 96.5176 380.492 95.041 382.443 95.041C384.342 95.041 385.484 96.2363 385.484 98.2578V110H390.424V98.5566C390.424 96.4648 391.707 95.041 393.658 95.041C395.645 95.041 396.734 96.2363 396.734 98.416V110H401.867V97.1328C401.867 93.3359 399.389 90.8047 395.697 90.8047C392.938 90.8047 390.688 92.2988 389.844 94.6719H389.738C389.105 92.2109 387.207 90.8047 384.482 90.8047C381.916 90.8047 379.895 92.2988 379.104 94.5664H378.998V91.1562H374.041V110ZM413.574 94.5488C415.859 94.5488 417.424 96.2012 417.529 98.6094H409.531C409.707 96.2539 411.324 94.5488 413.574 94.5488ZM417.6 104.234C417.125 105.676 415.684 106.607 413.803 106.607C411.184 106.607 409.479 104.762 409.479 102.072V101.756H422.469V100.191C422.469 94.4609 419.006 90.752 413.521 90.752C407.949 90.752 404.434 94.6543 404.434 100.666C404.434 106.695 407.914 110.404 413.715 110.404C418.373 110.404 421.748 107.926 422.311 104.234H417.6ZM432.4 106.59C430.66 106.59 429.5 105.711 429.5 104.305C429.5 102.969 430.59 102.107 432.506 101.967L436.479 101.721V103.092C436.479 105.131 434.633 106.59 432.4 106.59ZM430.713 110.299C433.068 110.299 435.406 109.121 436.461 107.117H436.566V110H441.523V97.0449C441.523 93.248 438.377 90.752 433.543 90.752C428.551 90.752 425.439 93.2656 425.246 96.9219H429.939C430.186 95.5332 431.398 94.584 433.314 94.584C435.248 94.584 436.479 95.6035 436.479 97.3613V98.6094L431.732 98.8906C427.039 99.1719 424.402 101.158 424.402 104.586C424.402 107.979 427.127 110.299 430.713 110.299ZM444.846 110H449.979V99.1895C449.979 96.7461 451.438 95.0586 453.74 95.0586C456.043 95.0586 457.203 96.4648 457.203 98.9258V110H462.336V97.8535C462.336 93.4414 459.98 90.8047 455.797 90.8047C452.896 90.8047 450.91 92.1758 449.908 94.5137H449.803V91.1562H444.846V110ZM465.676 110H470.809V91.1562H465.676V110ZM468.242 89.082C469.789 89.082 470.984 87.9043 470.984 86.4277C470.984 84.9336 469.789 83.7734 468.242 83.7734C466.695 83.7734 465.5 84.9336 465.5 86.4277C465.5 87.9043 466.695 89.082 468.242 89.082ZM474.236 110H479.369V99.1895C479.369 96.7461 480.828 95.0586 483.131 95.0586C485.434 95.0586 486.594 96.4648 486.594 98.9258V110H491.727V97.8535C491.727 93.4414 489.371 90.8047 485.188 90.8047C482.287 90.8047 480.301 92.1758 479.299 94.5137H479.193V91.1562H474.236V110ZM503.68 105.992C501.131 105.992 499.549 103.988 499.549 100.543C499.549 97.1152 501.148 94.9707 503.68 94.9707C506.246 94.9707 507.881 97.1504 507.881 100.543C507.881 103.953 506.246 105.992 503.68 105.992ZM503.592 117.102C509.234 117.102 512.996 114.236 512.996 109.736V91.1562H507.934V94.4434H507.846C506.861 92.2812 504.734 90.8574 502.027 90.8574C497.246 90.8574 494.293 94.5312 494.293 100.508C494.293 106.396 497.334 109.947 501.939 109.947C504.664 109.947 506.879 108.576 507.758 106.572H507.863V109.877C507.863 112.057 506.387 113.533 503.732 113.533C501.781 113.533 500.305 112.637 499.9 111.336H494.873C495.277 114.693 498.635 117.102 503.592 117.102ZM517.725 110H522.857V95.0234H526.479V91.2441H522.734V89.9961C522.734 88.6602 523.473 87.9219 525.16 87.9219C525.67 87.9219 526.18 87.957 526.549 88.0273V84.6348C525.951 84.5117 524.879 84.4062 523.93 84.4062C519.465 84.4062 517.725 86.1289 517.725 89.8203V91.2441H515.158V95.0234H517.725V110ZM546.588 91.1562H541.455V101.949C541.455 104.445 540.031 106.08 537.746 106.08C535.479 106.08 534.23 104.744 534.23 102.23V91.1562H529.098V103.303C529.098 107.697 531.805 110.352 535.883 110.352C538.73 110.352 540.594 108.98 541.525 106.607H541.631V110H546.588V91.1562ZM550.051 110H555.184V84.6348H550.051V110Z" fill="#0066FF"/>
<a href="https://long-boring-urls/blah-blah-blah">
<rect fill="black" fill-opacity="0" y="9.51953" width="370.371" height="42.9609"/>
</a>
<path d="M614.405 98.8087C619.595 98.5628 622.001 105.209 617.896 108.451V108.451C616.94 109.205 615.762 109.61 614.553 109.598L582.824 109.29C575.905 109.223 571.202 102.197 573.695 95.6502L584.092 68.339C585.193 65.4467 588.359 63.9513 591.244 64.961V64.961C594.431 66.0764 595.937 69.7545 594.471 72.8408L588.595 85.212C585.335 92.0745 590.464 99.9427 597.965 99.5874L614.405 98.8087Z" fill="#0066FF"/>
<path d="M589.46 17.5613C585.848 18.068 585.272 23.0454 588.672 24.3639L589.786 24.7958C615.421 34.7371 619.887 69.1099 597.645 85.2728V85.2728C594.718 87.3992 596.586 92.0243 600.169 91.5217L602.904 91.1379C603.435 91.0634 603.946 90.8834 604.406 90.6085V90.6085C634.655 72.5469 628.041 26.8933 594.154 17.2546V17.2546C593.612 17.1003 593.037 17.0594 592.478 17.1378L589.46 17.5613Z" fill="#0066FF"/>
<path d="M0.792969 27H5.92578V16.2422C5.92578 13.7637 7.34961 12.0586 9.77539 12.0586C12.1133 12.0586 13.3086 13.5352 13.3086 15.9609V27H18.4414V14.8711C18.4414 10.5117 16.0508 7.80469 11.8672 7.80469C9.00195 7.80469 6.94531 9.14062 5.94336 11.5137H5.83789V1.63477H0.792969V27ZM23.0996 3.81445V8.15625H20.4453V12.0234H23.0996V21.9199C23.0996 25.5938 24.8223 27.0703 29.252 27.0703C30.2891 27.0703 31.168 26.9824 31.6953 26.8594V23.0801C31.3789 23.1328 30.9043 23.168 30.4473 23.168C28.9355 23.168 28.2324 22.4824 28.2324 21.041V12.0234H31.7129V8.15625H28.2324V3.81445H23.0996ZM35.8965 3.81445V8.15625H33.2422V12.0234H35.8965V21.9199C35.8965 25.5938 37.6191 27.0703 42.0488 27.0703C43.0859 27.0703 43.9648 26.9824 44.4922 26.8594V23.0801C44.1758 23.1328 43.7012 23.168 43.2441 23.168C41.7324 23.168 41.0293 22.4824 41.0293 21.041V12.0234H44.5098V8.15625H41.0293V3.81445H35.8965ZM58.3262 7.85742C55.6016 7.85742 53.5098 9.22852 52.4902 11.4434H52.3848V8.15625H47.3223V33.1523H52.4551V23.8359H52.5605C53.5625 25.9629 55.6719 27.2988 58.4141 27.2988C63.125 27.2988 66.043 23.6426 66.043 17.5781C66.043 11.4961 63.1074 7.85742 58.3262 7.85742ZM56.6035 23.168C54.0898 23.168 52.4375 20.9883 52.4375 17.5781C52.4375 14.2031 54.0898 11.9707 56.6035 11.9707C59.1699 11.9707 60.7871 14.168 60.7871 17.5781C60.7871 21.0059 59.1699 23.168 56.6035 23.168ZM68.3809 13.6934C68.3809 16.4707 70.209 18.334 73.7773 19.1426L77.2578 19.916C78.9453 20.3203 79.5781 20.8477 79.5781 21.7969C79.5781 23.0273 78.4004 23.8008 76.4492 23.8008C74.4102 23.8008 73.1621 22.8867 72.916 21.3047H67.9062C68.1875 24.9785 71.2812 27.4043 76.3086 27.4043C81.2832 27.4043 84.6934 24.9609 84.6934 21.252C84.6934 18.4395 83.1641 16.9453 79.3848 16.1016L75.7812 15.3281C74.1289 14.9414 73.3203 14.3086 73.3203 13.377C73.3203 12.1641 74.4805 11.3555 76.2559 11.3555C78.1543 11.3555 79.3672 12.2871 79.4727 13.7988H84.2012C84.1309 10.1426 81.0547 7.75195 76.3262 7.75195C71.4922 7.75195 68.3809 10.1074 68.3809 13.6934ZM90.5996 27.2109C92.1641 27.2109 93.4297 25.9453 93.4297 24.3809C93.4297 22.7988 92.1641 21.5508 90.5996 21.5508C89.0176 21.5508 87.7695 22.7988 87.7695 24.3809C87.7695 25.9453 89.0176 27.2109 90.5996 27.2109ZM90.5996 14.6426C92.1641 14.6426 93.4297 13.377 93.4297 11.8125C93.4297 10.2305 92.1641 8.98242 90.5996 8.98242C89.0176 8.98242 87.7695 10.2305 87.7695 11.8125C87.7695 13.377 89.0176 14.6426 90.5996 14.6426ZM100.355 32.4492L109.355 1.63477H104.627L95.6094 32.4492H100.355ZM114.102 32.4492L123.102 1.63477H118.373L109.355 32.4492H114.102ZM133.297 22.9922C130.748 22.9922 129.166 20.9883 129.166 17.543C129.166 14.1152 130.766 11.9707 133.297 11.9707C135.863 11.9707 137.498 14.1504 137.498 17.543C137.498 20.9531 135.863 22.9922 133.297 22.9922ZM133.209 34.1016C138.852 34.1016 142.613 31.2363 142.613 26.7363V8.15625H137.551V11.4434H137.463C136.479 9.28125 134.352 7.85742 131.645 7.85742C126.863 7.85742 123.91 11.5312 123.91 17.5078C123.91 23.3965 126.951 26.9473 131.557 26.9473C134.281 26.9473 136.496 25.5762 137.375 23.5723H137.48V26.877C137.48 29.0566 136.004 30.5332 133.35 30.5332C131.398 30.5332 129.922 29.6367 129.518 28.3359H124.49C124.895 31.6934 128.252 34.1016 133.209 34.1016ZM146.059 27H151.191V8.15625H146.059V27ZM148.625 6.08203C150.172 6.08203 151.367 4.9043 151.367 3.42773C151.367 1.93359 150.172 0.773438 148.625 0.773438C147.078 0.773438 145.883 1.93359 145.883 3.42773C145.883 4.9043 147.078 6.08203 148.625 6.08203ZM165.816 27.2988C170.562 27.2988 173.463 23.6426 173.463 17.5781C173.463 11.4961 170.545 7.85742 165.799 7.85742C163.109 7.85742 161.018 9.19336 159.98 11.4258H159.875V1.63477H154.742V27H159.805V23.7656H159.91C160.947 25.9629 163.057 27.2988 165.816 27.2988ZM164.041 11.9707C166.59 11.9707 168.207 14.1504 168.207 17.5781C168.207 21.0234 166.607 23.168 164.041 23.168C161.545 23.168 159.857 20.9883 159.857 17.5781C159.857 14.2031 161.562 11.9707 164.041 11.9707ZM187.332 27.2988C192.078 27.2988 194.979 23.6426 194.979 17.5781C194.979 11.4961 192.061 7.85742 187.314 7.85742C184.625 7.85742 182.533 9.19336 181.496 11.4258H181.391V1.63477H176.258V27H181.32V23.7656H181.426C182.463 25.9629 184.572 27.2988 187.332 27.2988ZM185.557 11.9707C188.105 11.9707 189.723 14.1504 189.723 17.5781C189.723 21.0234 188.123 23.168 185.557 23.168C183.061 23.168 181.373 20.9883 181.373 17.5781C181.373 14.2031 183.078 11.9707 185.557 11.9707ZM206.105 11.5488C208.391 11.5488 209.955 13.2012 210.061 15.6094H202.062C202.238 13.2539 203.855 11.5488 206.105 11.5488ZM210.131 21.2344C209.656 22.6758 208.215 23.6074 206.334 23.6074C203.715 23.6074 202.01 21.7617 202.01 19.0723V18.7559H215V17.1914C215 11.4609 211.537 7.75195 206.053 7.75195C200.48 7.75195 196.965 11.6543 196.965 17.666C196.965 23.6953 200.445 27.4043 206.246 27.4043C210.904 27.4043 214.279 24.9258 214.842 21.2344H210.131ZM217.654 27H222.787V16.4707C222.787 13.8164 224.264 12.2695 226.795 12.2695C227.533 12.2695 228.236 12.3926 228.658 12.5684V8.05078C228.307 7.94531 227.797 7.85742 227.199 7.85742C224.984 7.85742 223.385 9.1582 222.717 11.5488H222.611V8.15625H217.654V27ZM230.855 27H235.988V8.15625H230.855V27ZM233.422 6.08203C234.969 6.08203 236.164 4.9043 236.164 3.42773C236.164 1.93359 234.969 0.773438 233.422 0.773438C231.875 0.773438 230.68 1.93359 230.68 3.42773C230.68 4.9043 231.875 6.08203 233.422 6.08203ZM239.1 13.6934C239.1 16.4707 240.928 18.334 244.496 19.1426L247.977 19.916C249.664 20.3203 250.297 20.8477 250.297 21.7969C250.297 23.0273 249.119 23.8008 247.168 23.8008C245.129 23.8008 243.881 22.8867 243.635 21.3047H238.625C238.906 24.9785 242 27.4043 247.027 27.4043C252.002 27.4043 255.412 24.9609 255.412 21.252C255.412 18.4395 253.883 16.9453 250.104 16.1016L246.5 15.3281C244.848 14.9414 244.039 14.3086 244.039 13.377C244.039 12.1641 245.199 11.3555 246.975 11.3555C248.873 11.3555 250.086 12.2871 250.191 13.7988H254.92C254.85 10.1426 251.773 7.75195 247.045 7.75195C242.211 7.75195 239.1 10.1074 239.1 13.6934ZM258.102 27H263.234V16.2422C263.234 13.7637 264.658 12.0586 267.084 12.0586C269.422 12.0586 270.617 13.5352 270.617 15.9609V27H275.75V14.8711C275.75 10.5117 273.359 7.80469 269.176 7.80469C266.311 7.80469 264.254 9.14062 263.252 11.5137H263.146V1.63477H258.102V27ZM282.113 32.4492L291.113 1.63477H286.385L277.367 32.4492H282.113ZM372.957 16.0312C374.557 17.6309 375.91 18.2988 377.492 18.2988C381.166 18.2988 383.328 15.416 383.117 10.8457H379.127C379.057 12.8848 378.354 13.9746 377.07 13.9746C376.297 13.9746 375.682 13.5879 374.662 12.5508C373.062 10.9512 371.691 10.2656 370.092 10.2656C366.418 10.2656 364.238 13.1484 364.449 17.7188H368.457C368.527 15.6621 369.213 14.5898 370.496 14.5898C371.287 14.5898 371.92 14.9766 372.957 16.0312ZM467.281 16.0312C468.881 17.6309 470.234 18.2988 471.816 18.2988C475.49 18.2988 477.652 15.416 477.441 10.8457H473.451C473.381 12.8848 472.678 13.9746 471.395 13.9746C470.621 13.9746 470.006 13.5879 468.986 12.5508C467.387 10.9512 466.016 10.2656 464.416 10.2656C460.742 10.2656 458.562 13.1484 458.773 17.7188H462.781C462.852 15.6621 463.537 14.5898 464.82 14.5898C465.611 14.5898 466.244 14.9766 467.281 16.0312Z" fill="#2D2D2D"/>
<path d="M303.98 27.2988C308.727 27.2988 311.627 23.6426 311.627 17.5781C311.627 11.4961 308.709 7.85742 303.963 7.85742C301.273 7.85742 299.182 9.19336 298.145 11.4258H298.039V1.63477H292.906V27H297.969V23.7656H298.074C299.111 25.9629 301.221 27.2988 303.98 27.2988ZM302.205 11.9707C304.754 11.9707 306.371 14.1504 306.371 17.5781C306.371 21.0234 304.771 23.168 302.205 23.168C299.709 23.168 298.021 20.9883 298.021 17.5781C298.021 14.2031 299.727 11.9707 302.205 11.9707ZM314.422 27H319.555V1.63477H314.422V27ZM330.295 23.5898C328.555 23.5898 327.395 22.7109 327.395 21.3047C327.395 19.9688 328.484 19.1074 330.4 18.9668L334.373 18.7207V20.0918C334.373 22.1309 332.527 23.5898 330.295 23.5898ZM328.607 27.2988C330.963 27.2988 333.301 26.1211 334.355 24.1172H334.461V27H339.418V14.0449C339.418 10.248 336.271 7.75195 331.438 7.75195C326.445 7.75195 323.334 10.2656 323.141 13.9219H327.834C328.08 12.5332 329.293 11.584 331.209 11.584C333.143 11.584 334.373 12.6035 334.373 14.3613V15.6094L329.627 15.8906C324.934 16.1719 322.297 18.1582 322.297 21.5859C322.297 24.9785 325.021 27.2988 328.607 27.2988ZM342.863 27H347.996V16.2422C347.996 13.7637 349.42 12.0586 351.846 12.0586C354.184 12.0586 355.379 13.5352 355.379 15.9609V27H360.512V14.8711C360.512 10.5117 358.121 7.80469 353.938 7.80469C351.072 7.80469 349.016 9.14062 348.014 11.5137H347.908V1.63477H342.863V27ZM398.305 27.2988C403.051 27.2988 405.951 23.6426 405.951 17.5781C405.951 11.4961 403.033 7.85742 398.287 7.85742C395.598 7.85742 393.506 9.19336 392.469 11.4258H392.363V1.63477H387.23V27H392.293V23.7656H392.398C393.436 25.9629 395.545 27.2988 398.305 27.2988ZM396.529 11.9707C399.078 11.9707 400.695 14.1504 400.695 17.5781C400.695 21.0234 399.096 23.168 396.529 23.168C394.033 23.168 392.346 20.9883 392.346 17.5781C392.346 14.2031 394.051 11.9707 396.529 11.9707ZM408.746 27H413.879V1.63477H408.746V27ZM424.619 23.5898C422.879 23.5898 421.719 22.7109 421.719 21.3047C421.719 19.9688 422.809 19.1074 424.725 18.9668L428.697 18.7207V20.0918C428.697 22.1309 426.852 23.5898 424.619 23.5898ZM422.932 27.2988C425.287 27.2988 427.625 26.1211 428.68 24.1172H428.785V27H433.742V14.0449C433.742 10.248 430.596 7.75195 425.762 7.75195C420.77 7.75195 417.658 10.2656 417.465 13.9219H422.158C422.404 12.5332 423.617 11.584 425.533 11.584C427.467 11.584 428.697 12.6035 428.697 14.3613V15.6094L423.951 15.8906C419.258 16.1719 416.621 18.1582 416.621 21.5859C416.621 24.9785 419.346 27.2988 422.932 27.2988ZM437.188 27H442.32V16.2422C442.32 13.7637 443.744 12.0586 446.17 12.0586C448.508 12.0586 449.703 13.5352 449.703 15.9609V27H454.836V14.8711C454.836 10.5117 452.445 7.80469 448.262 7.80469C445.396 7.80469 443.34 9.14062 442.338 11.5137H442.232V1.63477H437.188V27ZM492.629 27.2988C497.375 27.2988 500.275 23.6426 500.275 17.5781C500.275 11.4961 497.357 7.85742 492.611 7.85742C489.922 7.85742 487.83 9.19336 486.793 11.4258H486.688V1.63477H481.555V27H486.617V23.7656H486.723C487.76 25.9629 489.869 27.2988 492.629 27.2988ZM490.854 11.9707C493.402 11.9707 495.02 14.1504 495.02 17.5781C495.02 21.0234 493.42 23.168 490.854 23.168C488.357 23.168 486.67 20.9883 486.67 17.5781C486.67 14.2031 488.375 11.9707 490.854 11.9707ZM503.07 27H508.203V1.63477H503.07V27ZM518.943 23.5898C517.203 23.5898 516.043 22.7109 516.043 21.3047C516.043 19.9688 517.133 19.1074 519.049 18.9668L523.021 18.7207V20.0918C523.021 22.1309 521.176 23.5898 518.943 23.5898ZM517.256 27.2988C519.611 27.2988 521.949 26.1211 523.004 24.1172H523.109V27H528.066V14.0449C528.066 10.248 524.92 7.75195 520.086 7.75195C515.094 7.75195 511.982 10.2656 511.789 13.9219H516.482C516.729 12.5332 517.941 11.584 519.857 11.584C521.791 11.584 523.021 12.6035 523.021 14.3613V15.6094L518.275 15.8906C513.582 16.1719 510.945 18.1582 510.945 21.5859C510.945 24.9785 513.67 27.2988 517.256 27.2988ZM531.512 27H536.645V16.2422C536.645 13.7637 538.068 12.0586 540.494 12.0586C542.832 12.0586 544.027 13.5352 544.027 15.9609V27H549.16V14.8711C549.16 10.5117 546.77 7.80469 542.586 7.80469C539.721 7.80469 537.664 9.14062 536.662 11.5137H536.557V1.63477H531.512V27Z" fill="#FF3434"/>
<a href="https://long-boring-urls/blah-blah-blah">
<rect fill="black" fill-opacity="0" y="9.51953" width="551.76" height="42.9609"/>
</a>
<path d="M3.79297 110H8.92578V99.2422C8.92578 96.7637 10.3496 95.0586 12.7754 95.0586C15.1133 95.0586 16.3086 96.5352 16.3086 98.9609V110H21.4414V97.8711C21.4414 93.5117 19.0508 90.8047 14.8672 90.8047C12.002 90.8047 9.94531 92.1406 8.94336 94.5137H8.83789V84.6348H3.79297V110ZM26.0996 86.8145V91.1562H23.4453V95.0234H26.0996V104.92C26.0996 108.594 27.8223 110.07 32.252 110.07C33.2891 110.07 34.168 109.982 34.6953 109.859V106.08C34.3789 106.133 33.9043 106.168 33.4473 106.168C31.9355 106.168 31.2324 105.482 31.2324 104.041V95.0234H34.7129V91.1562H31.2324V86.8145H26.0996ZM38.8965 86.8145V91.1562H36.2422V95.0234H38.8965V104.92C38.8965 108.594 40.6191 110.07 45.0488 110.07C46.0859 110.07 46.9648 109.982 47.4922 109.859V106.08C47.1758 106.133 46.7012 106.168 46.2441 106.168C44.7324 106.168 44.0293 105.482 44.0293 104.041V95.0234H47.5098V91.1562H44.0293V86.8145H38.8965ZM61.3262 90.8574C58.6016 90.8574 56.5098 92.2285 55.4902 94.4434H55.3848V91.1562H50.3223V116.152H55.4551V106.836H55.5605C56.5625 108.963 58.6719 110.299 61.4141 110.299C66.125 110.299 69.043 106.643 69.043 100.578C69.043 94.4961 66.1074 90.8574 61.3262 90.8574ZM59.6035 106.168C57.0898 106.168 55.4375 103.988 55.4375 100.578C55.4375 97.2031 57.0898 94.9707 59.6035 94.9707C62.1699 94.9707 63.7871 97.168 63.7871 100.578C63.7871 104.006 62.1699 106.168 59.6035 106.168ZM71.3809 96.6934C71.3809 99.4707 73.209 101.334 76.7773 102.143L80.2578 102.916C81.9453 103.32 82.5781 103.848 82.5781 104.797C82.5781 106.027 81.4004 106.801 79.4492 106.801C77.4102 106.801 76.1621 105.887 75.916 104.305H70.9062C71.1875 107.979 74.2812 110.404 79.3086 110.404C84.2832 110.404 87.6934 107.961 87.6934 104.252C87.6934 101.439 86.1641 99.9453 82.3848 99.1016L78.7812 98.3281C77.1289 97.9414 76.3203 97.3086 76.3203 96.377C76.3203 95.1641 77.4805 94.3555 79.2559 94.3555C81.1543 94.3555 82.3672 95.2871 82.4727 96.7988H87.2012C87.1309 93.1426 84.0547 90.752 79.3262 90.752C74.4922 90.752 71.3809 93.1074 71.3809 96.6934ZM93.5996 110.211C95.1641 110.211 96.4297 108.945 96.4297 107.381C96.4297 105.799 95.1641 104.551 93.5996 104.551C92.0176 104.551 90.7695 105.799 90.7695 107.381C90.7695 108.945 92.0176 110.211 93.5996 110.211ZM93.5996 97.6426C95.1641 97.6426 96.4297 96.377 96.4297 94.8125C96.4297 93.2305 95.1641 91.9824 93.5996 91.9824C92.0176 91.9824 90.7695 93.2305 90.7695 94.8125C90.7695 96.377 92.0176 97.6426 93.5996 97.6426ZM103.355 115.449L112.355 84.6348H107.627L98.6094 115.449H103.355ZM117.102 115.449L126.102 84.6348H121.373L112.355 115.449H117.102ZM136.227 94.5488C138.512 94.5488 140.076 96.2012 140.182 98.6094H132.184C132.359 96.2539 133.977 94.5488 136.227 94.5488ZM140.252 104.234C139.777 105.676 138.336 106.607 136.455 106.607C133.836 106.607 132.131 104.762 132.131 102.072V101.756H145.121V100.191C145.121 94.4609 141.658 90.752 136.174 90.752C130.602 90.752 127.086 94.6543 127.086 100.666C127.086 106.695 130.566 110.404 136.367 110.404C141.025 110.404 144.4 107.926 144.963 104.234H140.252ZM155.053 106.59C153.312 106.59 152.152 105.711 152.152 104.305C152.152 102.969 153.242 102.107 155.158 101.967L159.131 101.721V103.092C159.131 105.131 157.285 106.59 155.053 106.59ZM153.365 110.299C155.721 110.299 158.059 109.121 159.113 107.117H159.219V110H164.176V97.0449C164.176 93.248 161.029 90.752 156.195 90.752C151.203 90.752 148.092 93.2656 147.898 96.9219H152.592C152.838 95.5332 154.051 94.584 155.967 94.584C157.9 94.584 159.131 95.6035 159.131 97.3613V98.6094L154.385 98.8906C149.691 99.1719 147.055 101.158 147.055 104.586C147.055 107.979 149.779 110.299 153.365 110.299ZM167.041 110H182.598V106.062H173.562V105.975L182.387 94.4082V91.1562H167.182V95.0762H176.428V95.1816L167.041 107.082V110ZM188.012 116.979C192.828 116.979 195.184 115.256 196.801 110.422L203.287 91.1562H197.873L193.865 105.887H193.777L189.77 91.1562H184.127L190.684 110.018C190.719 110.088 190.525 110.844 190.525 110.914C190.174 112.408 189.242 113.006 187.361 113.006C187.168 113.006 186.236 113.006 186.078 112.971V116.926C186.236 116.961 187.836 116.979 188.012 116.979ZM205.238 110H210.371V91.1562H205.238V110ZM207.805 89.082C209.352 89.082 210.547 87.9043 210.547 86.4277C210.547 84.9336 209.352 83.7734 207.805 83.7734C206.258 83.7734 205.062 84.9336 205.062 86.4277C205.062 87.9043 206.258 89.082 207.805 89.082ZM213.799 110H218.932V99.1895C218.932 96.7461 220.391 95.0586 222.693 95.0586C224.996 95.0586 226.156 96.4648 226.156 98.9258V110H231.289V97.8535C231.289 93.4414 228.934 90.8047 224.75 90.8047C221.85 90.8047 219.863 92.1758 218.861 94.5137H218.756V91.1562H213.799V110ZM235.912 110H241.045V95.0234H244.666V91.2441H240.922V89.9961C240.922 88.6602 241.66 87.9219 243.348 87.9219C243.857 87.9219 244.367 87.957 244.736 88.0273V84.6348C244.139 84.5117 243.066 84.4062 242.117 84.4062C237.652 84.4062 235.912 86.1289 235.912 89.8203V91.2441H233.346V95.0234H235.912V110ZM247.373 110H252.506V99.4707C252.506 96.8164 253.982 95.2695 256.514 95.2695C257.252 95.2695 257.955 95.3926 258.377 95.5684V91.0508C258.025 90.9453 257.516 90.8574 256.918 90.8574C254.703 90.8574 253.104 92.1582 252.436 94.5488H252.33V91.1562H247.373V110ZM267.307 106.59C265.566 106.59 264.406 105.711 264.406 104.305C264.406 102.969 265.496 102.107 267.412 101.967L271.385 101.721V103.092C271.385 105.131 269.539 106.59 267.307 106.59ZM265.619 110.299C267.975 110.299 270.312 109.121 271.367 107.117H271.473V110H276.43V97.0449C276.43 93.248 273.283 90.752 268.449 90.752C263.457 90.752 260.346 93.2656 260.152 96.9219H264.846C265.092 95.5332 266.305 94.584 268.221 94.584C270.154 94.584 271.385 95.6035 271.385 97.3613V98.6094L266.639 98.8906C261.945 99.1719 259.309 101.158 259.309 104.586C259.309 107.979 262.033 110.299 265.619 110.299ZM283.092 110.211C284.656 110.211 285.922 108.945 285.922 107.381C285.922 105.799 284.656 104.551 283.092 104.551C281.51 104.551 280.262 105.799 280.262 107.381C280.262 108.945 281.51 110.211 283.092 110.211ZM306.084 98.1699C305.855 93.8984 302.621 90.752 297.523 90.752C291.881 90.752 288.277 94.5137 288.277 100.561C288.277 106.713 291.881 110.404 297.559 110.404C302.516 110.404 305.838 107.539 306.102 103.092H301.32C301.004 105.148 299.668 106.379 297.611 106.379C295.062 106.379 293.48 104.27 293.48 100.561C293.48 96.9219 295.062 94.7773 297.594 94.7773C299.703 94.7773 301.021 96.1836 301.32 98.1699H306.084ZM317.229 110.404C322.924 110.404 326.562 106.766 326.562 100.561C326.562 94.4434 322.871 90.752 317.229 90.752C311.586 90.752 307.895 94.4609 307.895 100.561C307.895 106.748 311.533 110.404 317.229 110.404ZM317.229 106.484C314.697 106.484 313.098 104.357 313.098 100.578C313.098 96.834 314.732 94.6719 317.229 94.6719C319.725 94.6719 321.342 96.834 321.342 100.578C321.342 104.357 319.742 106.484 317.229 106.484ZM329.217 110H334.35V98.627C334.35 96.5176 335.668 95.041 337.619 95.041C339.518 95.041 340.66 96.2363 340.66 98.2578V110H345.6V98.5566C345.6 96.4648 346.883 95.041 348.834 95.041C350.82 95.041 351.91 96.2363 351.91 98.416V110H357.043V97.1328C357.043 93.3359 354.564 90.8047 350.873 90.8047C348.113 90.8047 345.863 92.2988 345.02 94.6719H344.914C344.281 92.2109 342.383 90.8047 339.658 90.8047C337.092 90.8047 335.07 92.2988 334.279 94.5664H334.174V91.1562H329.217V110ZM363.371 115.449L372.371 84.6348H367.643L358.625 115.449H363.371Z" fill="#2D2D2D"/>
<path d="M374.041 110H379.174V98.627C379.174 96.5176 380.492 95.041 382.443 95.041C384.342 95.041 385.484 96.2363 385.484 98.2578V110H390.424V98.5566C390.424 96.4648 391.707 95.041 393.658 95.041C395.645 95.041 396.734 96.2363 396.734 98.416V110H401.867V97.1328C401.867 93.3359 399.389 90.8047 395.697 90.8047C392.938 90.8047 390.688 92.2988 389.844 94.6719H389.738C389.105 92.2109 387.207 90.8047 384.482 90.8047C381.916 90.8047 379.895 92.2988 379.104 94.5664H378.998V91.1562H374.041V110ZM413.574 94.5488C415.859 94.5488 417.424 96.2012 417.529 98.6094H409.531C409.707 96.2539 411.324 94.5488 413.574 94.5488ZM417.6 104.234C417.125 105.676 415.684 106.607 413.803 106.607C411.184 106.607 409.479 104.762 409.479 102.072V101.756H422.469V100.191C422.469 94.4609 419.006 90.752 413.521 90.752C407.949 90.752 404.434 94.6543 404.434 100.666C404.434 106.695 407.914 110.404 413.715 110.404C418.373 110.404 421.748 107.926 422.311 104.234H417.6ZM432.4 106.59C430.66 106.59 429.5 105.711 429.5 104.305C429.5 102.969 430.59 102.107 432.506 101.967L436.479 101.721V103.092C436.479 105.131 434.633 106.59 432.4 106.59ZM430.713 110.299C433.068 110.299 435.406 109.121 436.461 107.117H436.566V110H441.523V97.0449C441.523 93.248 438.377 90.752 433.543 90.752C428.551 90.752 425.439 93.2656 425.246 96.9219H429.939C430.186 95.5332 431.398 94.584 433.314 94.584C435.248 94.584 436.479 95.6035 436.479 97.3613V98.6094L431.732 98.8906C427.039 99.1719 424.402 101.158 424.402 104.586C424.402 107.979 427.127 110.299 430.713 110.299ZM444.846 110H449.979V99.1895C449.979 96.7461 451.438 95.0586 453.74 95.0586C456.043 95.0586 457.203 96.4648 457.203 98.9258V110H462.336V97.8535C462.336 93.4414 459.98 90.8047 455.797 90.8047C452.896 90.8047 450.91 92.1758 449.908 94.5137H449.803V91.1562H444.846V110ZM465.676 110H470.809V91.1562H465.676V110ZM468.242 89.082C469.789 89.082 470.984 87.9043 470.984 86.4277C470.984 84.9336 469.789 83.7734 468.242 83.7734C466.695 83.7734 465.5 84.9336 465.5 86.4277C465.5 87.9043 466.695 89.082 468.242 89.082ZM474.236 110H479.369V99.1895C479.369 96.7461 480.828 95.0586 483.131 95.0586C485.434 95.0586 486.594 96.4648 486.594 98.9258V110H491.727V97.8535C491.727 93.4414 489.371 90.8047 485.188 90.8047C482.287 90.8047 480.301 92.1758 479.299 94.5137H479.193V91.1562H474.236V110ZM503.68 105.992C501.131 105.992 499.549 103.988 499.549 100.543C499.549 97.1152 501.148 94.9707 503.68 94.9707C506.246 94.9707 507.881 97.1504 507.881 100.543C507.881 103.953 506.246 105.992 503.68 105.992ZM503.592 117.102C509.234 117.102 512.996 114.236 512.996 109.736V91.1562H507.934V94.4434H507.846C506.861 92.2812 504.734 90.8574 502.027 90.8574C497.246 90.8574 494.293 94.5312 494.293 100.508C494.293 106.396 497.334 109.947 501.939 109.947C504.664 109.947 506.879 108.576 507.758 106.572H507.863V109.877C507.863 112.057 506.387 113.533 503.732 113.533C501.781 113.533 500.305 112.637 499.9 111.336H494.873C495.277 114.693 498.635 117.102 503.592 117.102ZM517.725 110H522.857V95.0234H526.479V91.2441H522.734V89.9961C522.734 88.6602 523.473 87.9219 525.16 87.9219C525.67 87.9219 526.18 87.957 526.549 88.0273V84.6348C525.951 84.5117 524.879 84.4062 523.93 84.4062C519.465 84.4062 517.725 86.1289 517.725 89.8203V91.2441H515.158V95.0234H517.725V110ZM546.588 91.1562H541.455V101.949C541.455 104.445 540.031 106.08 537.746 106.08C535.479 106.08 534.23 104.744 534.23 102.23V91.1562H529.098V103.303C529.098 107.697 531.805 110.352 535.883 110.352C538.73 110.352 540.594 108.98 541.525 106.607H541.631V110H546.588V91.1562ZM550.051 110H555.184V84.6348H550.051V110Z" fill="#0066FF"/>
<a href="https://long-boring-urls/blah-blah-blah">
<rect fill="black" fill-opacity="0" y="9.51953" width="370.371" height="42.9609"/>
</a>
<g filter="url(#filter0_d_0_1)">
<path d="M614.405 98.8087C619.595 98.5628 622.001 105.209 617.896 108.451V108.451C616.94 109.205 615.762 109.61 614.553 109.598L582.824 109.29C575.905 109.223 571.202 102.197 573.695 95.6502L584.092 68.339C585.193 65.4467 588.359 63.9513 591.244 64.961V64.961C594.431 66.0764 595.937 69.7545 594.471 72.8408L588.595 85.212C585.335 92.0745 590.464 99.9427 597.965 99.5874L614.405 98.8087Z" fill="#0066FF"/>
</g>
<g filter="url(#filter1_d_0_1)">
<path d="M589.46 17.5613C585.848 18.068 585.272 23.0454 588.672 24.3639L589.786 24.7958C615.421 34.7371 619.887 69.1099 597.645 85.2728V85.2728C594.718 87.3992 596.586 92.0243 600.169 91.5217L602.904 91.1379C603.435 91.0634 603.946 90.8834 604.406 90.6085V90.6085C634.655 72.5469 628.041 26.8933 594.154 17.2546V17.2546C593.612 17.1003 593.037 17.0594 592.478 17.1378L589.46 17.5613Z" fill="#0066FF"/>
</g>
<defs>
<filter id="filter0_d_0_1" x="569.019" y="64.646" width="54.9548" height="52.9521" filterUnits="userSpaceOnUse" color-interpolation-filters="sRGB">
<feFlood flood-opacity="0" result="BackgroundImageFix"/>
<feColorMatrix in="SourceAlpha" type="matrix" values="0 0 0 0 0 0 0 0 0 0 0 0 0 0 0 0 0 0 127 0" result="hardAlpha"/>
<feOffset dy="4"/>
<feGaussianBlur stdDeviation="2"/>
<feComposite in2="hardAlpha" operator="out"/>
<feColorMatrix type="matrix" values="0 0 0 0 0 0 0 0 0 0 0 0 0 0 0 0 0 0 0.25 0"/>
<feBlend mode="normal" in2="BackgroundImageFix" result="effect1_dropShadow_0_1"/>
<feBlend mode="normal" in="SourceGraphic" in2="effect1_dropShadow_0_1" result="shape"/>
</filter>
<filter id="filter1_d_0_1" x="582.412" y="17.0989" width="45.3323" height="82.4607" filterUnits="userSpaceOnUse" color-interpolation-filters="sRGB">
<feFlood flood-opacity="0" result="BackgroundImageFix"/>
<feColorMatrix in="SourceAlpha" type="matrix" values="0 0 0 0 0 0 0 0 0 0 0 0 0 0 0 0 0 0 127 0" result="hardAlpha"/>
<feOffset dy="4"/>
<feGaussianBlur stdDeviation="2"/>
<feComposite in2="hardAlpha" operator="out"/>
<feColorMatrix type="matrix" values="0 0 0 0 0 0 0 0 0 0 0 0 0 0 0 0 0 0 0.25 0"/>
<feBlend mode="normal" in2="BackgroundImageFix" result="effect1_dropShadow_0_1"/>
<feBlend mode="normal" in="SourceGraphic" in2="effect1_dropShadow_0_1" result="shape"/>
</filter>
</defs>
</svg>
